<?xml version="1.0" encoding="UTF-8"?>
<svg id="Layer_2" data-name="Layer 2" xmlns="http://www.w3.org/2000/svg" viewBox="0 0 984.14 227.83">
	<defs>
		<style>
			.cls-2 {
			fill-rule: evenodd;
			}
		</style>
	</defs>
	<g id="Layer_1-2" data-name="Layer 1">
		<g>
			<polyline class="cls-2" points="0 108.1 32.08 227.83 0 227.83 0 108.1" />
			<polyline class="cls-2" points="119.73 0 0 32.08 0 0 119.73 0" />
			<path class="cls-2" d="m176.77,5.05L5.05,51.06l46.01,171.72,171.72-46.01L176.77,5.05M41,55.86l76.54,61.06s3.78,2.28,1.57,5.84c-.14.22-.28.43-.43.61-.03.04-.06.07-.08.1-.05.06-.09.11-.14.16-.07.08-.14.15-.2.23-.05.05-.1.09-.15.14-.04.04-.08.07-.12.11-.02.02-.05.04-.07.06-.04.04-.08.07-.12.11-.05.03-.09.07-.13.1-.03.02-.07.05-.1.07-.05.03-.1.06-.14.09-.06.04-.12.07-.18.1-.05.03-.12.07-.17.09-.02,0-.03.01-.05.02-.04.02-.09.04-.13.06,0,0,0,0-.02,0-.05.02-.11.05-.16.07-.06.02-.11.04-.18.06-.05.02-.11.03-.17.05-.98.26-1.9.09-2.55-.14-.07-.03-.15-.06-.22-.08-.45-.18-.72-.35-.72-.35L22.66,60.77l18.33-4.91Zm135.24,80.89l-.58,38.21-38.06.44-11.38-15.66-2.04,19.37-33.38,18.6-19.41-32.75,7.96-17.87-17.4,2.76-26.61-27.43,26.61-27.23,26.07,17.74-9.03,9.24,12.22,12.59,7.99-1.27-3.65,8.21,8.91,15.03,15.33-8.54.93-8.89,5.23,7.19,17.48-.2.27-17.55-7.22-5.25,7.5-2.88,4.33-16.93-16.88-4.8-8.47,6.86-1.15-10.88-15.23-8.56-6.29,10.52-24.5-19.71,19.61-32.8,33.18,18.65,2.49,23.71,18.46-14.95,36.75,10.45-9.43,36.88-16.33,6.26,15.73,11.43Z" />
			<polyline class="cls-2" points="227.83 0 227.83 119.73 195.75 0 227.83 0" />
			<polyline class="cls-2" points="108.1 227.83 227.83 195.75 227.83 227.83 108.1 227.83" />
			<path class="cls-1" d="m273.94,155.44v-49.36c0-7.35,1.58-13.82,4.73-19.42,3.15-5.78,7.7-10.15,13.48-13.3,5.78-3.32,12.6-4.9,20.3-4.9s14.35,1.75,19.95,5.08c5.6,3.32,9.97,8.22,12.95,15.05h-8.75c2.98-6.83,7.35-11.9,12.95-15.23,5.6-3.15,12.25-4.9,19.78-4.9s14.7,1.57,20.48,4.9c5.78,3.15,10.15,7.53,13.3,13.3,3.33,5.6,4.9,12.07,4.9,19.42v49.36h-26.78v-48.13c0-4.73-1.23-8.4-3.67-11.2-2.28-2.45-5.6-3.85-9.8-3.85s-7.53,1.4-9.8,4.03c-2.45,2.62-3.67,6.3-3.67,11.02v48.13h-26.78v-48.13c0-4.73-1.22-8.4-3.5-11.2-2.28-2.45-5.6-3.85-9.8-3.85s-7.53,1.4-9.8,4.03c-2.45,2.62-3.67,6.3-3.67,11.02v48.13h-26.78" />
			<path class="cls-1" d="m449.31,155.79l-35-85.4h28.88l22.22,67.73h-10.68l22.75-67.73h28.88l-36.4,85.4h-20.65m-21.88,35.53l25.55-55.13,16.98,19.6-15.05,35.53h-27.48Z" />
			<path class="cls-1" d="m542.59,157.54c-5.08,0-9.98-.7-14.88-1.93-4.73-1.22-9.27-3.15-13.48-5.6-4.03-2.28-7.53-5.08-10.5-8.22l15.23-15.4c2.8,2.98,6.12,5.43,9.97,7,3.85,1.75,8.05,2.62,12.6,2.62,3.15,0,5.6-.52,7.17-1.4,1.75-.88,2.62-2.28,2.62-3.85,0-2.1-1.05-3.67-3.15-4.9-1.93-1.05-4.55-2.1-7.7-2.98-3.15-.87-6.47-1.75-9.97-2.8-3.5-1.05-6.83-2.45-9.97-4.37-3.15-1.92-5.78-4.55-7.7-7.88-1.92-3.32-2.97-7.53-2.97-12.6,0-5.42,1.4-10.32,4.2-14.35,2.8-4.03,6.83-7.17,11.9-9.45,5.08-2.28,11.2-3.5,18.03-3.5,7.18,0,13.83,1.23,19.95,3.85,6.12,2.45,11.2,6.12,15.05,11.02l-15.23,15.4c-2.62-3.15-5.78-5.42-9.1-6.65-3.32-1.23-6.47-1.93-9.63-1.93-2.97,0-5.25.35-6.83,1.23-1.57.88-2.28,2.28-2.28,3.85,0,1.75,1.05,3.15,2.98,4.2,1.93,1.05,4.55,1.93,7.7,2.8,3.15.87,6.47,1.75,9.97,2.98s6.83,2.8,9.97,4.72c3.15,1.93,5.78,4.55,7.7,7.88,1.92,3.32,2.97,7.7,2.97,13.13,0,8.23-3.15,14.88-9.27,19.78-6.3,4.9-14.7,7.35-25.38,7.35" />
			<polyline class="cls-1" points="619.58 155.44 581.26 71.44 602.61 71.44 631.84 139.86 619.24 139.86 648.64 71.44 669.12 71.44 630.79 155.44 619.58 155.44" />
			<path class="cls-1" d="m714.99,157.19c-8.4,0-15.92-1.93-22.75-5.78-6.65-3.68-11.9-8.92-15.93-15.58-3.85-6.65-5.78-14.17-5.78-22.4s1.93-15.75,5.78-22.4c3.85-6.48,9.1-11.72,15.57-15.57,6.65-3.85,14-5.78,22.05-5.78s14.7,1.75,20.65,5.42c6.12,3.68,10.85,8.58,14.18,14.88,3.5,6.3,5.25,13.48,5.25,21.53,0,1.4-.17,2.8-.35,4.2-.18,1.57-.35,3.15-.7,4.9h-68.96v-15.75h58.98l-7.17,6.3c-.18-5.08-1.23-9.45-2.98-12.95s-4.2-6.12-7.35-8.05c-3.32-1.92-7.17-2.8-11.9-2.8s-9.1,1.05-12.77,3.15c-3.68,2.1-6.48,5.08-8.4,8.75-1.92,3.85-2.97,8.4-2.97,13.65s1.05,9.8,3.15,13.83c2.1,4.03,5.08,7,8.92,9.1,3.85,2.28,8.23,3.33,13.3,3.33,4.37,0,8.22-.7,11.9-2.28,3.67-1.58,6.83-3.68,9.45-6.65l12.25,12.43c-4.03,4.73-9.1,8.4-14.87,10.85-5.78,2.45-12.08,3.68-18.55,3.68" />
			<path class="cls-1" d="m786.91,155.44h-19.25v-84.01h19.25v84.01Zm0-46.73l-6.65-3.33c0-10.68,2.45-19.25,7.17-25.73,4.72-6.65,11.72-9.97,21.35-9.97,4.2,0,8.05.7,11.38,2.28,3.32,1.57,6.47,4.03,9.45,7.35l-12.6,12.95c-1.57-1.57-3.15-2.8-5.08-3.5-1.92-.7-4.02-1.05-6.47-1.05-5.42,0-9.8,1.75-13.3,5.08-3.5,3.32-5.25,8.75-5.25,15.93Z" />
			<path class="cls-1" d="m862.86,157.19c-4.72,0-9.1-.7-13.48-1.93s-8.22-2.98-11.9-5.08c-3.67-2.28-6.83-5.08-9.45-8.4l12.25-12.25c2.98,3.32,6.3,5.95,9.98,7.7,3.85,1.57,8.22,2.45,12.95,2.45,4.37,0,7.52-.7,9.8-1.93,2.28-1.23,3.32-3.15,3.32-5.6,0-2.62-1.05-4.55-3.15-5.95-2.1-1.4-4.9-2.63-8.22-3.5-3.33-1.05-6.83-2.1-10.5-3.15-3.67-1.05-7.17-2.45-10.5-4.2-3.32-1.93-5.95-4.37-8.05-7.53-2.1-3.15-3.15-7.17-3.15-12.25,0-5.43,1.22-9.97,3.67-13.83,2.62-3.85,6.12-6.83,10.68-8.92,4.73-2.1,10.15-3.15,16.63-3.15,6.83,0,12.77,1.23,17.85,3.67,5.25,2.28,9.63,5.95,13.13,10.68l-12.25,12.25c-2.45-2.98-5.25-5.25-8.4-6.83-3.15-1.58-6.82-2.28-10.85-2.28s-6.83.52-8.92,1.75c-2.1,1.22-3.15,2.8-3.15,5.08s1.05,4.2,3.15,5.42c2.1,1.23,4.72,2.45,8.05,3.32,3.32.88,6.83,1.93,10.5,2.98,3.67,1.23,7.17,2.62,10.5,4.55,3.32,1.92,6.12,4.55,8.22,7.7,2.1,3.32,3.15,7.53,3.15,12.6,0,8.22-2.8,14.7-8.58,19.42-5.78,4.73-13.48,7.18-23.28,7.18" />
			<path class="cls-1" d="m948.79,157.19c-8.92,0-16.62-1.93-23.45-5.95-6.83-3.85-12.25-9.1-16.1-15.75-3.85-6.65-5.78-14-5.78-22.22s1.93-15.58,5.95-22.05c3.85-6.48,9.1-11.73,15.93-15.75,6.65-3.85,14.18-5.78,22.58-5.78s15.92,1.92,21.88,5.6c5.95,3.85,10.68,9.27,14.35,16.1l-49.17,49.36-11.2-11.2,44.46-44.46.35,14.18c-1.75-3.67-4.2-6.65-7.35-8.75-3.15-2.1-7.53-3.15-12.95-3.15s-9.8,1.05-13.65,3.33c-4.03,2.27-7,5.25-9.1,9.1-2.1,4.03-3.15,8.4-3.15,13.48s1.05,9.62,3.15,13.48c2.1,4.02,5.08,7,9.1,9.1,4.03,2.28,8.58,3.33,14,3.33,4.73,0,9.1-.7,12.78-2.28,3.67-1.58,6.83-3.68,9.45-6.65l12.25,12.43c-4.03,4.73-9.1,8.4-14.87,10.85-5.95,2.45-12.43,3.68-19.43,3.68" />
		</g>
	</g>
</svg>
