<svg width="100%" height="100%" viewBox="0 0 2134 427" version="1.1" xmlns="http://www.w3.org/2000/svg" xmlns:xlink="http://www.w3.org/1999/xlink" xml:space="preserve" xmlns:serif="http://www.serif.com/" style="fill-rule:evenodd;clip-rule:evenodd;stroke-linejoin:round;stroke-miterlimit:2;">
	<rect id="Artboard2" x="-0" y="0" width="2133.33" height="426.206" style="fill:none;" />
	<clipPath id="_clip1">
		<rect x="-0" y="0" width="2133.33" height="426.206" />
	</clipPath>
	<g clip-path="url(#_clip1)">
		<g>
			<g>
				<path d="M-0,202.225l60.013,223.981l-60.013,0l-0,-223.981" />
				<path d="M223.981,0l-223.981,60.013l-0,-60.013l223.981,0" />
				<path d="M330.687,9.447l-321.24,86.072l86.072,321.24l321.24,-86.072l-86.072,-321.24m-253.987,95.051l143.184,114.227c0,-0 7.072,4.265 2.937,10.925c-0.261,0.411 -0.523,0.804 -0.804,1.141c-0.056,0.074 -0.112,0.131 -0.15,0.187c-0.093,0.112 -0.168,0.206 -0.262,0.299c-0.131,0.15 -0.261,0.281 -0.374,0.43c-0.093,0.094 -0.187,0.169 -0.28,0.262c-0.075,0.075 -0.15,0.131 -0.225,0.206c-0.037,0.037 -0.093,0.075 -0.131,0.112c-0.075,0.075 -0.149,0.131 -0.224,0.206c-0.094,0.056 -0.169,0.131 -0.243,0.187c-0.057,0.038 -0.131,0.094 -0.188,0.131c-0.093,0.056 -0.187,0.112 -0.261,0.168c-0.113,0.075 -0.225,0.131 -0.337,0.187c-0.094,0.057 -0.225,0.131 -0.318,0.169c-0.038,-0 -0.056,0.019 -0.094,0.037c-0.075,0.038 -0.168,0.075 -0.243,0.113l-0.037,-0c-0.094,0.037 -0.206,0.093 -0.3,0.13c-0.112,0.038 -0.205,0.075 -0.336,0.113c-0.094,0.037 -0.206,0.056 -0.318,0.093c-1.834,0.487 -3.555,0.169 -4.771,-0.262c-0.131,-0.056 -0.28,-0.112 -0.411,-0.149c-0.842,-0.337 -1.347,-0.655 -1.347,-0.655l-168.776,-119.071l34.29,-9.186l0.019,0Zm252.996,151.323l-1.085,71.48l-71.2,0.823l-21.289,-29.295l-3.816,36.236l-62.445,34.795l-36.31,-61.266l14.891,-33.43l-32.551,5.163l-49.78,-51.314l49.78,-50.939l48.77,33.186l-16.893,17.286l22.86,23.552l14.947,-2.376l-6.828,15.359l16.668,28.117l28.678,-15.976l1.74,-16.631l9.784,13.451l32.7,-0.374l0.505,-32.832l-13.506,-9.821l14.03,-5.388l8.1,-31.671l-31.577,-8.979l-15.845,12.833l-2.152,-20.354l-28.491,-16.013l-11.767,19.68l-45.832,-36.872l36.685,-61.359l62.07,34.889l4.658,44.354l34.534,-27.967l68.749,19.549l-17.641,68.992l-30.549,11.711l29.426,21.382l-0.018,0.019Z" />
				<path d="M426.206,0l0,223.981l-60.013,-223.981l60.013,0" />
				<path d="M202.225,426.206l223.981,-60.013l0,60.013l-223.981,0" />
			</g>
			<g transform="matrix(5.00747,0,0,5.00747,-35502.4,-740.698)">
				<g transform="matrix(57.2379,0,0,57.2379,7190,204)">
					<path d="M0.043,-0l-0,-0.282c-0,-0.042 0.009,-0.079 0.027,-0.111c0.018,-0.033 0.044,-0.058 0.077,-0.076c0.033,-0.019 0.072,-0.028 0.116,-0.028c0.044,0 0.082,0.01 0.114,0.029c0.032,0.019 0.057,0.047 0.074,0.086l-0.05,0c0.017,-0.039 0.042,-0.068 0.074,-0.087c0.032,-0.018 0.07,-0.028 0.113,-0.028c0.045,0 0.084,0.009 0.117,0.028c0.033,0.018 0.058,0.043 0.076,0.076c0.019,0.032 0.028,0.069 0.028,0.111l0,0.282l-0.153,-0l0,-0.275c0,-0.027 -0.007,-0.048 -0.021,-0.064c-0.013,-0.014 -0.032,-0.022 -0.056,-0.022c-0.024,0 -0.043,0.008 -0.056,0.023c-0.014,0.015 -0.021,0.036 -0.021,0.063l0,0.275l-0.153,-0l0,-0.275c0,-0.027 -0.007,-0.048 -0.02,-0.064c-0.013,-0.014 -0.032,-0.022 -0.056,-0.022c-0.024,0 -0.043,0.008 -0.056,0.023c-0.014,0.015 -0.021,0.036 -0.021,0.063l0,0.275l-0.153,-0Z" style="fill-rule:nonzero;" />
				</g>
				<g transform="matrix(57.2379,0,0,57.2379,7238.14,204)">
					<path d="M0.204,0.002l-0.2,-0.488l0.165,0l0.127,0.387l-0.061,-0l0.13,-0.387l0.165,0l-0.208,0.488l-0.118,-0Zm-0.125,0.203l0.146,-0.315l0.097,0.112l-0.086,0.203l-0.157,-0Z" style="fill-rule:nonzero;" />
				</g>
				<g transform="matrix(57.2379,0,0,57.2379,7267.1,204)">
					<path d="M0.231,0.012c-0.029,-0 -0.057,-0.004 -0.085,-0.011c-0.027,-0.007 -0.053,-0.018 -0.077,-0.032c-0.023,-0.013 -0.043,-0.029 -0.06,-0.047l0.087,-0.088c0.016,0.017 0.035,0.031 0.057,0.04c0.022,0.01 0.046,0.015 0.072,0.015c0.018,-0 0.032,-0.003 0.041,-0.008c0.01,-0.005 0.015,-0.013 0.015,-0.022c0,-0.012 -0.006,-0.021 -0.018,-0.028c-0.011,-0.006 -0.026,-0.012 -0.044,-0.017c-0.018,-0.005 -0.037,-0.01 -0.057,-0.016c-0.02,-0.006 -0.039,-0.014 -0.057,-0.025c-0.018,-0.011 -0.033,-0.026 -0.044,-0.045c-0.011,-0.019 -0.017,-0.043 -0.017,-0.072c-0,-0.031 0.008,-0.059 0.024,-0.082c0.016,-0.023 0.039,-0.041 0.068,-0.054c0.029,-0.013 0.064,-0.02 0.103,-0.02c0.041,0 0.079,0.007 0.114,0.022c0.035,0.014 0.064,0.035 0.086,0.063l-0.087,0.088c-0.015,-0.018 -0.033,-0.031 -0.052,-0.038c-0.019,-0.007 -0.037,-0.011 -0.055,-0.011c-0.017,-0 -0.03,0.002 -0.039,0.007c-0.009,0.005 -0.013,0.013 -0.013,0.022c-0,0.01 0.006,0.018 0.017,0.024c0.011,0.006 0.026,0.011 0.044,0.016c0.018,0.005 0.037,0.01 0.057,0.017c0.02,0.007 0.039,0.016 0.057,0.027c0.018,0.011 0.033,0.026 0.044,0.045c0.011,0.019 0.017,0.044 0.017,0.075c0,0.047 -0.018,0.085 -0.053,0.113c-0.036,0.028 -0.084,0.042 -0.145,0.042Z" style="fill-rule:nonzero;" />
				</g>
				<g transform="matrix(57.2379,0,0,57.2379,7292.74,204)">
					<path d="M0.223,-0l-0.219,-0.48l0.122,0l0.167,0.391l-0.072,-0l0.168,-0.391l0.117,0l-0.219,0.48l-0.064,-0Z" style="fill-rule:nonzero;" />
				</g>
				<g transform="matrix(57.2379,0,0,57.2379,7320.45,204)">
					<path d="M0.284,0.01c-0.048,-0 -0.091,-0.011 -0.13,-0.033c-0.038,-0.021 -0.068,-0.051 -0.091,-0.089c-0.022,-0.038 -0.033,-0.081 -0.033,-0.128c-0,-0.047 0.011,-0.09 0.033,-0.128c0.022,-0.037 0.052,-0.067 0.089,-0.089c0.038,-0.022 0.08,-0.033 0.126,-0.033c0.045,0 0.084,0.01 0.118,0.031c0.035,0.021 0.062,0.049 0.081,0.085c0.02,0.036 0.03,0.077 0.03,0.123c0,0.008 -0.001,0.016 -0.002,0.024c-0.001,0.009 -0.002,0.018 -0.004,0.028l-0.394,-0l0,-0.09l0.337,-0l-0.041,0.036c-0.001,-0.029 -0.007,-0.054 -0.017,-0.074c-0.01,-0.02 -0.024,-0.035 -0.042,-0.046c-0.019,-0.011 -0.041,-0.016 -0.068,-0.016c-0.028,-0 -0.052,0.006 -0.073,0.018c-0.021,0.012 -0.037,0.029 -0.048,0.05c-0.011,0.022 -0.017,0.048 -0.017,0.078c0,0.03 0.006,0.056 0.018,0.079c0.012,0.023 0.029,0.04 0.051,0.052c0.022,0.013 0.047,0.019 0.076,0.019c0.025,-0 0.047,-0.004 0.068,-0.013c0.021,-0.009 0.039,-0.021 0.054,-0.038l0.07,0.071c-0.023,0.027 -0.052,0.048 -0.085,0.062c-0.033,0.014 -0.069,0.021 -0.106,0.021Z" style="fill-rule:nonzero;" />
				</g>
				<g transform="matrix(57.2379,0,0,57.2379,7350.44,204)">
					<path d="M0.061,-0l0,-0.48l0.11,0l0,0.48l-0.11,-0Zm0.11,-0.267l-0.038,-0.019c0,-0.061 0.014,-0.11 0.041,-0.147c0.027,-0.038 0.067,-0.057 0.122,-0.057c0.024,0 0.046,0.004 0.065,0.013c0.019,0.009 0.037,0.023 0.054,0.042l-0.072,0.074c-0.009,-0.009 -0.018,-0.016 -0.029,-0.02c-0.011,-0.004 -0.023,-0.006 -0.037,-0.006c-0.031,0 -0.056,0.01 -0.076,0.029c-0.02,0.019 -0.03,0.05 -0.03,0.091Z" style="fill-rule:nonzero;" />
				</g>
				<g transform="matrix(57.2379,0,0,57.2379,7372.59,204)">
					<path d="M0.218,0.01c-0.027,-0 -0.052,-0.004 -0.077,-0.011c-0.025,-0.007 -0.047,-0.017 -0.068,-0.029c-0.021,-0.013 -0.039,-0.029 -0.054,-0.048l0.07,-0.07c0.017,0.019 0.036,0.034 0.057,0.044c0.022,0.009 0.047,0.014 0.074,0.014c0.025,0 0.043,-0.004 0.056,-0.011c0.013,-0.007 0.019,-0.018 0.019,-0.032c-0,-0.015 -0.006,-0.026 -0.018,-0.034c-0.012,-0.008 -0.028,-0.015 -0.047,-0.02c-0.019,-0.006 -0.039,-0.012 -0.06,-0.018c-0.021,-0.006 -0.041,-0.014 -0.06,-0.024c-0.019,-0.011 -0.034,-0.025 -0.046,-0.043c-0.012,-0.018 -0.018,-0.041 -0.018,-0.07c-0,-0.031 0.007,-0.057 0.021,-0.079c0.015,-0.022 0.035,-0.039 0.061,-0.051c0.027,-0.012 0.058,-0.018 0.095,-0.018c0.039,0 0.073,0.007 0.102,0.021c0.03,0.013 0.055,0.034 0.075,0.061l-0.07,0.07c-0.014,-0.017 -0.03,-0.03 -0.048,-0.039c-0.018,-0.009 -0.039,-0.013 -0.062,-0.013c-0.022,0 -0.039,0.003 -0.051,0.01c-0.012,0.007 -0.018,0.016 -0.018,0.029c-0,0.013 0.006,0.024 0.018,0.031c0.012,0.007 0.027,0.014 0.046,0.019c0.019,0.005 0.039,0.011 0.06,0.017c0.021,0.007 0.041,0.015 0.06,0.026c0.019,0.011 0.035,0.026 0.047,0.044c0.012,0.019 0.018,0.043 0.018,0.072c-0,0.047 -0.016,0.084 -0.049,0.111c-0.033,0.027 -0.077,0.041 -0.133,0.041Z" style="fill-rule:nonzero;" />
				</g>
				<g transform="matrix(57.2379,0,0,57.2379,7396.63,204)">
					<path d="M0.289,0.01c-0.051,-0 -0.095,-0.011 -0.134,-0.034c-0.039,-0.022 -0.07,-0.052 -0.092,-0.09c-0.022,-0.038 -0.033,-0.08 -0.033,-0.127c0,-0.047 0.011,-0.089 0.034,-0.126c0.022,-0.037 0.052,-0.067 0.091,-0.09c0.038,-0.022 0.081,-0.033 0.129,-0.033c0.049,0 0.091,0.011 0.125,0.032c0.034,0.022 0.061,0.053 0.082,0.092l-0.281,0.282l-0.064,-0.064l0.254,-0.254l0.002,0.081c-0.01,-0.021 -0.024,-0.038 -0.042,-0.05c-0.018,-0.012 -0.043,-0.018 -0.074,-0.018c-0.03,-0 -0.056,0.006 -0.078,0.019c-0.023,0.013 -0.04,0.03 -0.052,0.052c-0.012,0.023 -0.018,0.048 -0.018,0.077c0,0.029 0.006,0.055 0.018,0.077c0.012,0.023 0.029,0.04 0.052,0.052c0.023,0.013 0.049,0.019 0.08,0.019c0.027,-0 0.052,-0.004 0.073,-0.013c0.021,-0.009 0.039,-0.021 0.054,-0.038l0.07,0.071c-0.023,0.027 -0.052,0.048 -0.085,0.062c-0.034,0.014 -0.071,0.021 -0.111,0.021Z" style="fill-rule:nonzero;" />
				</g>
			</g>
			<path d="M2126.26,167.861l-0,90.484c-0,24.969 -20.272,45.241 -45.242,45.241l-308.727,0c-24.969,0 -45.242,-20.272 -45.242,-45.241l0,-90.484c0,-24.969 20.273,-45.242 45.242,-45.242l308.727,0c24.97,0 45.242,20.273 45.242,45.242Zm-131.02,48.662l19.405,28.029l21.412,-0l19.405,-27.836l-0,55.939l33.121,0l0,-119.104l-24.255,-0l-38.903,57.175l-39.051,-57.175l-24.256,-0l0,119.104l33.122,0l0,-56.132Zm-183.173,58.14c15.724,-0 27.908,-3.318 36.551,-9.954c8.643,-6.635 12.964,-16.031 12.964,-28.187c-0,-6.022 -1.004,-11.152 -3.011,-15.39c-2.008,-4.237 -4.656,-7.778 -7.946,-10.622c-3.29,-2.844 -6.886,-5.186 -10.79,-7.026c-3.903,-1.84 -7.834,-3.429 -11.793,-4.767c-3.959,-1.339 -7.583,-2.621 -10.873,-3.848c-3.29,-1.227 -5.939,-2.593 -7.946,-4.098c-2.008,-1.506 -3.011,-3.429 -3.011,-5.771c-0,-2.231 1.031,-3.904 3.094,-5.019c2.064,-1.115 4.824,-1.673 8.281,-1.673c4.349,0 8.364,0.865 12.044,2.593c3.68,1.729 7.361,4.377 11.041,7.946l21.077,-20.91c-5.018,-5.242 -11.347,-9.284 -18.986,-12.128c-7.639,-2.844 -15.92,-4.266 -24.842,-4.266c-9.033,0 -16.895,1.478 -23.586,4.433c-6.692,2.955 -11.877,7.221 -15.558,12.797c-3.68,5.576 -5.52,12.212 -5.52,19.907c0,5.91 1.004,10.901 3.011,14.971c2.008,4.071 4.656,7.472 7.946,10.205c3.29,2.732 6.887,5.046 10.79,6.942c3.903,1.896 7.834,3.513 11.793,4.851c3.959,1.338 7.584,2.649 10.873,3.931c3.29,1.283 5.939,2.732 7.946,4.35c2.008,1.617 3.011,3.652 3.011,6.105c0,2.454 -1.171,4.377 -3.512,5.772c-2.342,1.394 -5.8,2.091 -10.372,2.091c-5.464,-0 -10.594,-1.088 -15.39,-3.262c-4.795,-2.175 -9.368,-5.326 -13.717,-9.452l-20.91,20.91c6.356,6.469 13.299,11.18 20.826,14.136c7.528,2.955 16.366,4.433 26.515,4.433Zm80.128,-2.008l33.456,0l-0,-119.104l-33.456,-0l-0,119.104Z" />
		</g>
	</g>
</svg>
