<?xml version="1.0" encoding="UTF-8" standalone="no"?>
<!DOCTYPE svg PUBLIC "-//W3C//DTD SVG 1.1//EN" "http://www.w3.org/Graphics/SVG/1.1/DTD/svg11.dtd">
<svg width="100%" height="100%" viewBox="0 0 1008 176" version="1.1" xmlns="http://www.w3.org/2000/svg" xmlns:xlink="http://www.w3.org/1999/xlink" xml:space="preserve" xmlns:serif="http://www.serif.com/" style="fill-rule:evenodd;clip-rule:evenodd;stroke-linejoin:round;stroke-miterlimit:2;">
    <g transform="matrix(2.53602,0,0,2.53602,-582.709,-1293.34)">
        <g transform="matrix(0.302955,0,0,0.302955,229.773,509.987)">
            <path d="M0,108.1L32.08,227.83L0,227.83L0,108.1" style="fill:white;"/>
            <path d="M119.73,0L0,32.08L0,0L119.73,0" style="fill:white;"/>
            <path d="M176.77,5.05L5.05,51.06L51.06,222.78L222.78,176.77L176.77,5.05M41,55.86L117.54,116.92C117.54,116.92 121.32,119.2 119.11,122.76C118.97,122.98 118.83,123.19 118.68,123.37C118.65,123.41 118.62,123.44 118.6,123.47C118.55,123.53 118.51,123.58 118.46,123.63C118.39,123.71 118.32,123.78 118.26,123.86C118.21,123.91 118.16,123.95 118.11,124C118.07,124.04 118.03,124.07 117.99,124.11C117.97,124.13 117.94,124.15 117.92,124.17C117.88,124.21 117.84,124.24 117.8,124.28C117.75,124.31 117.71,124.35 117.67,124.38C117.64,124.4 117.6,124.43 117.57,124.45C117.52,124.48 117.47,124.51 117.43,124.54C117.37,124.58 117.31,124.61 117.25,124.64C117.2,124.67 117.13,124.71 117.08,124.73C117.06,124.73 117.05,124.74 117.03,124.75C116.99,124.77 116.94,124.79 116.9,124.81L116.88,124.81C116.83,124.83 116.77,124.86 116.72,124.88C116.66,124.9 116.61,124.92 116.54,124.94C116.49,124.96 116.43,124.97 116.37,124.99C115.39,125.25 114.47,125.08 113.82,124.85C113.75,124.82 113.67,124.79 113.6,124.77C113.15,124.59 112.88,124.42 112.88,124.42L22.66,60.77L40.99,55.86L41,55.86ZM176.24,136.75L175.66,174.96L137.6,175.4L126.22,159.74L124.18,179.11L90.8,197.71L71.39,164.96L79.35,147.09L61.95,149.85L35.34,122.42L61.95,95.19L88.02,112.93L78.99,122.17L91.21,134.76L99.2,133.49L95.55,141.7L104.46,156.73L119.79,148.19L120.72,139.3L125.95,146.49L143.43,146.29L143.7,128.74L136.48,123.49L143.98,120.61L148.31,103.68L131.43,98.88L122.96,105.74L121.81,94.86L106.58,86.3L100.29,96.82L75.79,77.11L95.4,44.31L128.58,62.96L131.07,86.67L149.53,71.72L186.28,82.17L176.85,119.05L160.52,125.31L176.25,136.74L176.24,136.75Z" style="fill:white;"/>
            <path d="M227.83,0L227.83,119.73L195.75,0L227.83,0" style="fill:white;"/>
            <path d="M108.1,227.83L227.83,195.75L227.83,227.83L108.1,227.83" style="fill:white;"/>
        </g>
        <g transform="matrix(0.947779,0,0,0.947779,-6495.13,363.971)">
            <g transform="matrix(57.2379,0,0,57.2379,7190,204)">
                <path d="M0.043,-0L0.043,-0.282C0.043,-0.324 0.052,-0.361 0.07,-0.394C0.088,-0.426 0.114,-0.451 0.147,-0.47C0.18,-0.488 0.219,-0.497 0.263,-0.497C0.307,-0.497 0.345,-0.488 0.377,-0.469C0.409,-0.45 0.434,-0.421 0.451,-0.382L0.401,-0.382C0.418,-0.421 0.443,-0.45 0.475,-0.469C0.507,-0.488 0.545,-0.497 0.588,-0.497C0.633,-0.497 0.672,-0.488 0.705,-0.47C0.738,-0.451 0.763,-0.426 0.782,-0.394C0.8,-0.361 0.809,-0.324 0.809,-0.282L0.809,-0L0.656,-0L0.656,-0.275C0.656,-0.302 0.649,-0.324 0.636,-0.339C0.622,-0.354 0.603,-0.361 0.579,-0.361C0.555,-0.361 0.536,-0.354 0.523,-0.339C0.509,-0.324 0.502,-0.302 0.502,-0.275L0.502,-0L0.349,-0L0.349,-0.275C0.349,-0.302 0.342,-0.324 0.329,-0.339C0.316,-0.354 0.297,-0.361 0.273,-0.361C0.249,-0.361 0.23,-0.354 0.217,-0.339C0.203,-0.324 0.196,-0.302 0.196,-0.275L0.196,-0L0.043,-0Z" style="fill:white;fill-rule:nonzero;"/>
            </g>
            <g transform="matrix(57.2379,0,0,57.2379,7238.14,204)">
                <path d="M0.204,0.002L0.004,-0.486L0.169,-0.486L0.296,-0.099L0.235,-0.099L0.365,-0.486L0.53,-0.486L0.322,0.002L0.204,0.002ZM0.079,0.205L0.225,-0.11L0.322,0.002L0.236,0.205L0.079,0.205Z" style="fill:white;fill-rule:nonzero;"/>
            </g>
            <g transform="matrix(57.2379,0,0,57.2379,7267.1,204)">
                <path d="M0.231,0.012C0.202,0.012 0.174,0.008 0.147,0.001C0.119,-0.006 0.093,-0.017 0.07,-0.031C0.046,-0.044 0.026,-0.06 0.009,-0.078L0.096,-0.166C0.112,-0.149 0.131,-0.135 0.153,-0.126C0.175,-0.116 0.199,-0.111 0.225,-0.111C0.243,-0.111 0.257,-0.114 0.267,-0.119C0.276,-0.124 0.281,-0.132 0.281,-0.141C0.281,-0.153 0.275,-0.162 0.264,-0.169C0.252,-0.175 0.237,-0.181 0.219,-0.186C0.201,-0.191 0.182,-0.196 0.162,-0.202C0.142,-0.208 0.123,-0.216 0.105,-0.227C0.087,-0.238 0.072,-0.253 0.061,-0.272C0.05,-0.291 0.044,-0.315 0.044,-0.344C0.044,-0.375 0.052,-0.403 0.068,-0.426C0.084,-0.448 0.107,-0.467 0.136,-0.48C0.165,-0.493 0.2,-0.5 0.239,-0.5C0.28,-0.5 0.319,-0.493 0.354,-0.479C0.389,-0.464 0.417,-0.443 0.439,-0.415L0.352,-0.327C0.337,-0.345 0.32,-0.358 0.301,-0.365C0.282,-0.372 0.263,-0.376 0.245,-0.376C0.228,-0.376 0.215,-0.374 0.206,-0.369C0.197,-0.364 0.193,-0.356 0.193,-0.347C0.193,-0.337 0.199,-0.329 0.21,-0.323C0.221,-0.317 0.236,-0.312 0.254,-0.307C0.272,-0.302 0.291,-0.297 0.311,-0.29C0.331,-0.283 0.35,-0.274 0.368,-0.263C0.386,-0.252 0.401,-0.237 0.412,-0.218C0.423,-0.199 0.429,-0.174 0.429,-0.143C0.429,-0.096 0.411,-0.058 0.376,-0.03C0.34,-0.002 0.292,0.012 0.231,0.012Z" style="fill:white;fill-rule:nonzero;"/>
            </g>
            <g transform="matrix(57.2379,0,0,57.2379,7292.74,204)">
                <path d="M0.223,-0L0.004,-0.48L0.126,-0.48L0.293,-0.089L0.221,-0.089L0.389,-0.48L0.506,-0.48L0.287,-0L0.223,-0Z" style="fill:white;fill-rule:nonzero;"/>
            </g>
            <g transform="matrix(57.2379,0,0,57.2379,7320.45,204)">
                <path d="M0.284,0.01C0.236,0.01 0.193,-0.001 0.155,-0.023C0.116,-0.044 0.086,-0.074 0.064,-0.112C0.041,-0.15 0.03,-0.193 0.03,-0.24C0.03,-0.287 0.041,-0.33 0.063,-0.368C0.085,-0.405 0.115,-0.435 0.153,-0.457C0.19,-0.479 0.232,-0.49 0.278,-0.49C0.323,-0.49 0.362,-0.48 0.397,-0.459C0.431,-0.438 0.458,-0.41 0.478,-0.374C0.497,-0.338 0.507,-0.297 0.507,-0.251C0.507,-0.243 0.507,-0.235 0.506,-0.227C0.505,-0.218 0.503,-0.209 0.501,-0.199L0.107,-0.199L0.107,-0.289L0.444,-0.289L0.403,-0.253C0.402,-0.282 0.396,-0.307 0.386,-0.327C0.376,-0.347 0.362,-0.362 0.344,-0.373C0.325,-0.384 0.303,-0.389 0.276,-0.389C0.248,-0.389 0.224,-0.383 0.203,-0.371C0.182,-0.359 0.166,-0.342 0.155,-0.321C0.144,-0.299 0.138,-0.273 0.138,-0.243C0.138,-0.213 0.144,-0.187 0.156,-0.164C0.168,-0.141 0.185,-0.124 0.207,-0.112C0.229,-0.099 0.254,-0.093 0.283,-0.093C0.308,-0.093 0.331,-0.097 0.352,-0.106C0.373,-0.115 0.39,-0.127 0.405,-0.144L0.475,-0.073C0.452,-0.046 0.423,-0.025 0.39,-0.011C0.357,0.003 0.321,0.01 0.284,0.01Z" style="fill:white;fill-rule:nonzero;"/>
            </g>
            <g transform="matrix(57.2379,0,0,57.2379,7350.44,204)">
                <path d="M0.061,-0L0.061,-0.48L0.171,-0.48L0.171,-0L0.061,-0ZM0.171,-0.267L0.133,-0.286C0.133,-0.347 0.147,-0.396 0.174,-0.434C0.201,-0.471 0.241,-0.49 0.296,-0.49C0.32,-0.49 0.342,-0.486 0.361,-0.477C0.38,-0.468 0.398,-0.454 0.415,-0.435L0.343,-0.361C0.334,-0.37 0.325,-0.377 0.314,-0.381C0.303,-0.385 0.291,-0.387 0.277,-0.387C0.246,-0.387 0.221,-0.377 0.201,-0.358C0.181,-0.339 0.171,-0.308 0.171,-0.267Z" style="fill:white;fill-rule:nonzero;"/>
            </g>
            <g transform="matrix(57.2379,0,0,57.2379,7372.59,204)">
                <path d="M0.218,0.01C0.191,0.01 0.166,0.007 0.141,-0.001C0.116,-0.008 0.094,-0.017 0.073,-0.031C0.052,-0.044 0.034,-0.059 0.019,-0.078L0.089,-0.148C0.106,-0.129 0.125,-0.114 0.147,-0.105C0.168,-0.095 0.193,-0.09 0.22,-0.09C0.245,-0.09 0.263,-0.094 0.276,-0.101C0.289,-0.108 0.295,-0.119 0.295,-0.133C0.295,-0.148 0.289,-0.159 0.277,-0.167C0.265,-0.175 0.25,-0.182 0.231,-0.188C0.212,-0.193 0.192,-0.199 0.171,-0.205C0.15,-0.211 0.13,-0.219 0.111,-0.23C0.092,-0.24 0.076,-0.254 0.064,-0.272C0.052,-0.29 0.046,-0.313 0.046,-0.342C0.046,-0.373 0.053,-0.399 0.068,-0.421C0.082,-0.443 0.102,-0.46 0.129,-0.472C0.155,-0.484 0.186,-0.49 0.223,-0.49C0.262,-0.49 0.296,-0.483 0.326,-0.47C0.355,-0.456 0.38,-0.435 0.4,-0.408L0.33,-0.338C0.316,-0.355 0.3,-0.368 0.282,-0.377C0.264,-0.386 0.243,-0.39 0.22,-0.39C0.198,-0.39 0.181,-0.387 0.169,-0.38C0.157,-0.373 0.151,-0.364 0.151,-0.351C0.151,-0.338 0.157,-0.327 0.169,-0.32C0.181,-0.313 0.197,-0.306 0.216,-0.301C0.235,-0.296 0.255,-0.29 0.276,-0.284C0.297,-0.277 0.317,-0.269 0.336,-0.258C0.355,-0.247 0.37,-0.232 0.382,-0.214C0.394,-0.195 0.4,-0.171 0.4,-0.142C0.4,-0.095 0.384,-0.058 0.351,-0.031C0.318,-0.004 0.274,0.01 0.218,0.01Z" style="fill:white;fill-rule:nonzero;"/>
            </g>
            <g transform="matrix(57.2379,0,0,57.2379,7396.63,204)">
                <path d="M0.289,0.01C0.238,0.01 0.194,-0.001 0.155,-0.024C0.116,-0.046 0.085,-0.076 0.063,-0.114C0.041,-0.152 0.03,-0.194 0.03,-0.241C0.03,-0.288 0.041,-0.33 0.064,-0.367C0.086,-0.404 0.116,-0.434 0.155,-0.457C0.193,-0.479 0.236,-0.49 0.284,-0.49C0.333,-0.49 0.375,-0.479 0.409,-0.458C0.443,-0.436 0.47,-0.405 0.491,-0.366L0.21,-0.084L0.146,-0.148L0.4,-0.402L0.402,-0.321C0.392,-0.342 0.378,-0.359 0.36,-0.371C0.342,-0.383 0.317,-0.389 0.286,-0.389C0.256,-0.389 0.23,-0.383 0.208,-0.37C0.185,-0.357 0.168,-0.34 0.156,-0.318C0.144,-0.295 0.138,-0.27 0.138,-0.241C0.138,-0.212 0.144,-0.186 0.156,-0.164C0.168,-0.141 0.185,-0.124 0.208,-0.112C0.231,-0.099 0.257,-0.093 0.288,-0.093C0.315,-0.093 0.34,-0.097 0.361,-0.106C0.382,-0.115 0.4,-0.127 0.415,-0.144L0.485,-0.073C0.462,-0.046 0.433,-0.025 0.4,-0.011C0.366,0.003 0.329,0.01 0.289,0.01Z" style="fill:white;fill-rule:nonzero;"/>
            </g>
        </g>
        <g transform="matrix(1,0,0,1,-7.96881,0)">
            <path d="M634.932,535.937L634.932,553.063C634.932,557.789 631.095,561.626 626.369,561.626L567.936,561.626C563.209,561.626 559.373,557.789 559.373,553.063L559.373,535.937C559.373,531.211 563.209,527.374 567.936,527.374L626.369,527.374C631.095,527.374 634.932,531.211 634.932,535.937ZM590.63,555.772L596.962,555.772L596.962,533.228L590.63,533.228L590.63,555.772ZM610.134,545.147L613.807,550.452L617.859,550.452L621.532,545.184L621.532,555.772L627.801,555.772L627.801,533.228L623.21,533.228L615.847,544.05L608.456,533.228L603.865,533.228L603.865,555.772L610.134,555.772L610.134,545.147ZM575.464,556.152C578.44,556.152 580.746,555.524 582.382,554.268C584.018,553.012 584.836,551.233 584.836,548.933C584.836,547.793 584.646,546.822 584.266,546.02C583.886,545.218 583.385,544.547 582.762,544.009C582.139,543.471 581.459,543.028 580.72,542.679C579.981,542.331 579.237,542.03 578.488,541.777C577.738,541.524 577.052,541.281 576.43,541.049C575.807,540.817 575.306,540.558 574.926,540.273C574.546,539.988 574.356,539.624 574.356,539.181C574.356,538.759 574.551,538.442 574.942,538.231C575.332,538.02 575.854,537.914 576.509,537.914C577.332,537.914 578.092,538.078 578.788,538.405C579.485,538.732 580.182,539.234 580.878,539.909L584.868,535.951C583.918,534.959 582.72,534.194 581.274,533.656C579.828,533.118 578.261,532.848 576.572,532.848C574.862,532.848 573.374,533.128 572.108,533.687C570.841,534.247 569.86,535.054 569.163,536.11C568.467,537.165 568.118,538.421 568.118,539.877C568.118,540.996 568.308,541.941 568.688,542.711C569.068,543.482 569.57,544.125 570.192,544.642C570.815,545.16 571.496,545.598 572.234,545.956C572.973,546.315 573.717,546.621 574.467,546.875C575.216,547.128 575.902,547.376 576.525,547.619C577.147,547.861 577.649,548.136 578.029,548.442C578.409,548.748 578.598,549.133 578.598,549.598C578.598,550.062 578.377,550.426 577.934,550.69C577.49,550.954 576.836,551.086 575.971,551.086C574.936,551.086 573.965,550.88 573.058,550.468C572.15,550.057 571.285,549.46 570.461,548.679L566.504,552.637C567.707,553.861 569.021,554.753 570.446,555.313C571.87,555.872 573.543,556.152 575.464,556.152Z" style="fill:white;"/>
        </g>
    </g>
</svg>
