<svg width="100%" height="100%" viewBox="0 0 3179 599" version="1.1" xmlns="http://www.w3.org/2000/svg" xmlns:xlink="http://www.w3.org/1999/xlink" xml:space="preserve" xmlns:serif="http://www.serif.com/" style="fill-rule:evenodd;clip-rule:evenodd;stroke-linejoin:round;stroke-miterlimit:2;">
	<g>
		<g id="Monochrome">
			<path d="M0,113.594l-0,-113.594l423.94,0l-423.94,113.594Zm506.307,-113.594l107.068,0.001l0.002,399.588l-107.07,-399.589Zm107.068,484.532l0,113.59l-423.933,0.002l423.933,-113.592Zm-506.301,113.593l-107.071,-0l-0.002,-399.596l107.073,399.596Z" style="fill-rule:nonzero;" />
			<path d="M461.549,47.368l105.102,392.233l-414.825,111.153l-105.101,-392.233l414.824,-111.153Zm-188.645,94.192l-1.644,73.456l-53.734,-50.113c-2.105,-1.963 -5.304,-2.167 -7.641,-0.486c-2.337,1.68 -3.163,4.777 -1.972,7.398l30.389,66.896l-70.155,-21.836c-2.748,-0.856 -5.719,0.349 -7.095,2.877c-1.377,2.528 -0.777,5.676 1.433,7.521l56.405,47.085l-72.682,10.766c-2.848,0.422 -5.001,2.796 -5.145,5.671c-0.143,2.875 1.763,5.452 4.555,6.155l71.248,17.949l-60.812,41.235c-2.383,1.615 -3.293,4.689 -2.175,7.341c1.118,2.653 3.954,4.147 6.774,3.569l71.98,-14.742l-36.899,63.537c-1.446,2.49 -0.933,5.654 1.226,7.558c2.158,1.905 5.361,2.021 7.652,0.277l58.456,-44.513l-5.678,73.255c-0.222,2.87 1.613,5.498 4.384,6.277c2.771,0.78 5.707,-0.505 7.014,-3.07l33.353,-65.469l26.669,68.464c1.045,2.683 3.839,4.254 6.674,3.754c2.835,-0.5 4.922,-2.932 4.987,-5.81l1.645,-73.456l53.733,50.112c2.105,1.964 5.304,2.167 7.641,0.487c2.338,-1.68 3.163,-4.777 1.972,-7.398l-30.389,-66.896l70.155,21.836c2.749,0.855 5.719,-0.349 7.096,-2.877c1.376,-2.528 0.776,-5.677 -1.433,-7.522l-56.405,-47.085l72.681,-10.765c2.848,-0.422 5.002,-2.796 5.145,-5.671c0.144,-2.875 -1.763,-5.452 -4.555,-6.155l-71.248,-17.949l60.813,-41.235c2.382,-1.616 3.293,-4.689 2.175,-7.341c-1.119,-2.653 -3.954,-4.147 -6.775,-3.57l-71.98,14.742l36.899,-63.537c1.446,-2.489 0.933,-5.653 -1.226,-7.558c-2.158,-1.905 -5.361,-2.02 -7.651,-0.276l-58.456,44.513l5.677,-73.255c0.222,-2.87 -1.613,-5.498 -4.384,-6.278c-2.771,-0.779 -5.707,0.506 -7.014,3.071l-33.353,65.468l-26.669,-68.463c-1.045,-2.683 -3.839,-4.254 -6.674,-3.754c-2.835,0.5 -4.922,2.932 -4.987,5.81Z" style="fill-rule:nonzero;" />
		</g>
		<g transform="matrix(7.51121,0,0,7.51121,-53264.2,-1131.64)">
			<g transform="matrix(57.2379,0,0,57.2379,7190,204)">
				<path d="M0.043,-0l-0,-0.282c-0,-0.042 0.009,-0.079 0.027,-0.111c0.018,-0.033 0.044,-0.058 0.077,-0.076c0.033,-0.019 0.072,-0.028 0.116,-0.028c0.044,0 0.082,0.01 0.114,0.029c0.032,0.019 0.057,0.047 0.074,0.086l-0.05,0c0.017,-0.039 0.042,-0.068 0.074,-0.087c0.032,-0.018 0.07,-0.028 0.113,-0.028c0.045,0 0.084,0.009 0.117,0.028c0.033,0.018 0.058,0.043 0.076,0.076c0.019,0.032 0.028,0.069 0.028,0.111l0,0.282l-0.153,-0l0,-0.275c0,-0.027 -0.007,-0.048 -0.021,-0.064c-0.013,-0.014 -0.032,-0.022 -0.056,-0.022c-0.024,0 -0.043,0.008 -0.056,0.023c-0.014,0.015 -0.021,0.036 -0.021,0.063l0,0.275l-0.153,-0l0,-0.275c0,-0.027 -0.007,-0.048 -0.02,-0.064c-0.013,-0.014 -0.032,-0.022 -0.056,-0.022c-0.024,0 -0.043,0.008 -0.056,0.023c-0.014,0.015 -0.021,0.036 -0.021,0.063l0,0.275l-0.153,-0Z" style="fill-rule:nonzero;" />
			</g>
			<g transform="matrix(57.2379,0,0,57.2379,7238.14,204)">
				<path d="M0.204,0.002l-0.2,-0.488l0.165,0l0.127,0.387l-0.061,-0l0.13,-0.387l0.165,0l-0.208,0.488l-0.118,-0Zm-0.125,0.203l0.146,-0.315l0.097,0.112l-0.086,0.203l-0.157,-0Z" style="fill-rule:nonzero;" />
			</g>
			<g transform="matrix(57.2379,0,0,57.2379,7267.1,204)">
				<path d="M0.231,0.012c-0.029,-0 -0.057,-0.004 -0.085,-0.011c-0.027,-0.007 -0.053,-0.018 -0.077,-0.032c-0.023,-0.013 -0.043,-0.029 -0.06,-0.047l0.087,-0.088c0.016,0.017 0.035,0.031 0.057,0.04c0.022,0.01 0.046,0.015 0.072,0.015c0.018,-0 0.032,-0.003 0.041,-0.008c0.01,-0.005 0.015,-0.013 0.015,-0.022c0,-0.012 -0.006,-0.021 -0.018,-0.028c-0.011,-0.006 -0.026,-0.012 -0.044,-0.017c-0.018,-0.005 -0.037,-0.01 -0.057,-0.016c-0.02,-0.006 -0.039,-0.014 -0.057,-0.025c-0.018,-0.011 -0.033,-0.026 -0.044,-0.045c-0.011,-0.019 -0.017,-0.043 -0.017,-0.072c-0,-0.031 0.008,-0.059 0.024,-0.082c0.016,-0.023 0.039,-0.041 0.068,-0.054c0.029,-0.013 0.064,-0.02 0.103,-0.02c0.041,0 0.079,0.007 0.114,0.022c0.035,0.014 0.064,0.035 0.086,0.063l-0.087,0.088c-0.015,-0.018 -0.033,-0.031 -0.052,-0.038c-0.019,-0.007 -0.037,-0.011 -0.055,-0.011c-0.017,-0 -0.03,0.002 -0.039,0.007c-0.009,0.005 -0.013,0.013 -0.013,0.022c-0,0.01 0.006,0.018 0.017,0.024c0.011,0.006 0.026,0.011 0.044,0.016c0.018,0.005 0.037,0.01 0.057,0.017c0.02,0.007 0.039,0.016 0.057,0.027c0.018,0.011 0.033,0.026 0.044,0.045c0.011,0.019 0.017,0.044 0.017,0.075c0,0.047 -0.018,0.085 -0.053,0.113c-0.036,0.028 -0.084,0.042 -0.145,0.042Z" style="fill-rule:nonzero;" />
			</g>
			<g transform="matrix(57.2379,0,0,57.2379,7292.74,204)">
				<path d="M0.223,-0l-0.219,-0.48l0.122,0l0.167,0.391l-0.072,-0l0.168,-0.391l0.117,0l-0.219,0.48l-0.064,-0Z" style="fill-rule:nonzero;" />
			</g>
			<g transform="matrix(57.2379,0,0,57.2379,7320.45,204)">
				<path d="M0.284,0.01c-0.048,-0 -0.091,-0.011 -0.13,-0.033c-0.038,-0.021 -0.068,-0.051 -0.091,-0.089c-0.022,-0.038 -0.033,-0.081 -0.033,-0.128c-0,-0.047 0.011,-0.09 0.033,-0.128c0.022,-0.037 0.052,-0.067 0.089,-0.089c0.038,-0.022 0.08,-0.033 0.126,-0.033c0.045,0 0.084,0.01 0.118,0.031c0.035,0.021 0.062,0.049 0.081,0.085c0.02,0.036 0.03,0.077 0.03,0.123c0,0.008 -0.001,0.016 -0.002,0.024c-0.001,0.009 -0.002,0.018 -0.004,0.028l-0.394,-0l0,-0.09l0.337,-0l-0.041,0.036c-0.001,-0.029 -0.007,-0.054 -0.017,-0.074c-0.01,-0.02 -0.024,-0.035 -0.042,-0.046c-0.019,-0.011 -0.041,-0.016 -0.068,-0.016c-0.028,-0 -0.052,0.006 -0.073,0.018c-0.021,0.012 -0.037,0.029 -0.048,0.05c-0.011,0.022 -0.017,0.048 -0.017,0.078c0,0.03 0.006,0.056 0.018,0.079c0.012,0.023 0.029,0.04 0.051,0.052c0.022,0.013 0.047,0.019 0.076,0.019c0.025,-0 0.047,-0.004 0.068,-0.013c0.021,-0.009 0.039,-0.021 0.054,-0.038l0.07,0.071c-0.023,0.027 -0.052,0.048 -0.085,0.062c-0.033,0.014 -0.069,0.021 -0.106,0.021Z" style="fill-rule:nonzero;" />
			</g>
			<g transform="matrix(57.2379,0,0,57.2379,7350.44,204)">
				<path d="M0.061,-0l0,-0.48l0.11,0l0,0.48l-0.11,-0Zm0.11,-0.267l-0.038,-0.019c0,-0.061 0.014,-0.11 0.041,-0.147c0.027,-0.038 0.067,-0.057 0.122,-0.057c0.024,0 0.046,0.004 0.065,0.013c0.019,0.009 0.037,0.023 0.054,0.042l-0.072,0.074c-0.009,-0.009 -0.018,-0.016 -0.029,-0.02c-0.011,-0.004 -0.023,-0.006 -0.037,-0.006c-0.031,0 -0.056,0.01 -0.076,0.029c-0.02,0.019 -0.03,0.05 -0.03,0.091Z" style="fill-rule:nonzero;" />
			</g>
			<g transform="matrix(57.2379,0,0,57.2379,7372.59,204)">
				<path d="M0.218,0.01c-0.027,-0 -0.052,-0.004 -0.077,-0.011c-0.025,-0.007 -0.047,-0.017 -0.068,-0.029c-0.021,-0.013 -0.039,-0.029 -0.054,-0.048l0.07,-0.07c0.017,0.019 0.036,0.034 0.057,0.044c0.022,0.009 0.047,0.014 0.074,0.014c0.025,0 0.043,-0.004 0.056,-0.011c0.013,-0.007 0.019,-0.018 0.019,-0.032c-0,-0.015 -0.006,-0.026 -0.018,-0.034c-0.012,-0.008 -0.028,-0.015 -0.047,-0.02c-0.019,-0.006 -0.039,-0.012 -0.06,-0.018c-0.021,-0.006 -0.041,-0.014 -0.06,-0.024c-0.019,-0.011 -0.034,-0.025 -0.046,-0.043c-0.012,-0.018 -0.018,-0.041 -0.018,-0.07c-0,-0.031 0.007,-0.057 0.021,-0.079c0.015,-0.022 0.035,-0.039 0.061,-0.051c0.027,-0.012 0.058,-0.018 0.095,-0.018c0.039,0 0.073,0.007 0.102,0.021c0.03,0.013 0.055,0.034 0.075,0.061l-0.07,0.07c-0.014,-0.017 -0.03,-0.03 -0.048,-0.039c-0.018,-0.009 -0.039,-0.013 -0.062,-0.013c-0.022,0 -0.039,0.003 -0.051,0.01c-0.012,0.007 -0.018,0.016 -0.018,0.029c-0,0.013 0.006,0.024 0.018,0.031c0.012,0.007 0.027,0.014 0.046,0.019c0.019,0.005 0.039,0.011 0.06,0.017c0.021,0.007 0.041,0.015 0.06,0.026c0.019,0.011 0.035,0.026 0.047,0.044c0.012,0.019 0.018,0.043 0.018,0.072c-0,0.047 -0.016,0.084 -0.049,0.111c-0.033,0.027 -0.077,0.041 -0.133,0.041Z" style="fill-rule:nonzero;" />
			</g>
			<g transform="matrix(57.2379,0,0,57.2379,7396.63,204)">
				<path d="M0.289,0.01c-0.051,-0 -0.095,-0.011 -0.134,-0.034c-0.039,-0.022 -0.07,-0.052 -0.092,-0.09c-0.022,-0.038 -0.033,-0.08 -0.033,-0.127c0,-0.047 0.011,-0.089 0.034,-0.126c0.022,-0.037 0.052,-0.067 0.091,-0.09c0.038,-0.022 0.081,-0.033 0.129,-0.033c0.049,0 0.091,0.011 0.125,0.032c0.034,0.022 0.061,0.053 0.082,0.092l-0.281,0.282l-0.064,-0.064l0.254,-0.254l0.002,0.081c-0.01,-0.021 -0.024,-0.038 -0.042,-0.05c-0.018,-0.012 -0.043,-0.018 -0.074,-0.018c-0.03,-0 -0.056,0.006 -0.078,0.019c-0.023,0.013 -0.04,0.03 -0.052,0.052c-0.012,0.023 -0.018,0.048 -0.018,0.077c0,0.029 0.006,0.055 0.018,0.077c0.012,0.023 0.029,0.04 0.052,0.052c0.023,0.013 0.049,0.019 0.08,0.019c0.027,-0 0.052,-0.004 0.073,-0.013c0.021,-0.009 0.039,-0.021 0.054,-0.038l0.07,0.071c-0.023,0.027 -0.052,0.048 -0.085,0.062c-0.034,0.014 -0.071,0.021 -0.111,0.021Z" style="fill-rule:nonzero;" />
			</g>
		</g>
		<path d="M3178.77,231.2l0,135.725c0,37.454 -30.408,67.863 -67.862,67.863l-463.091,-0c-37.454,-0 -67.862,-30.409 -67.862,-67.863l-0,-135.725c-0,-37.455 30.408,-67.863 67.862,-67.863l463.091,0c37.454,0 67.862,30.408 67.862,67.863Zm-196.529,72.992l29.107,42.044l32.118,-0l29.107,-41.754l-0,83.909l49.683,-0l-0,-178.657l-36.384,-0l-58.355,85.763l-58.575,-85.763l-36.384,-0l0,178.657l49.683,-0l-0,-84.199Zm-154.569,84.199l50.185,-0l-0,-178.657l-50.185,-0l0,178.657Zm-120.192,3.011c23.587,-0 41.863,-4.977 54.827,-14.93c12.964,-9.953 19.447,-24.047 19.447,-42.28c-0,-9.034 -1.506,-16.729 -4.517,-23.085c-3.011,-6.357 -6.984,-11.668 -11.919,-15.934c-4.935,-4.266 -10.33,-7.779 -16.184,-10.539c-5.855,-2.76 -11.752,-5.144 -17.69,-7.151c-5.939,-2.007 -11.376,-3.931 -16.31,-5.771c-4.935,-1.84 -8.908,-3.89 -11.919,-6.148c-3.011,-2.258 -4.517,-5.144 -4.517,-8.657c0,-3.345 1.547,-5.855 4.642,-7.527c3.095,-1.673 7.235,-2.51 12.421,-2.51c6.524,0 12.546,1.297 18.066,3.89c5.521,2.593 11.041,6.566 16.561,11.919l31.616,-31.366c-7.527,-7.862 -17.02,-13.926 -28.479,-18.192c-11.459,-4.265 -23.88,-6.398 -37.262,-6.398c-13.55,-0 -25.344,2.216 -35.38,6.649c-10.037,4.433 -17.816,10.832 -23.336,19.196c-5.521,8.364 -8.281,18.317 -8.281,29.86c0,8.866 1.506,16.351 4.517,22.457c3.011,6.106 6.984,11.208 11.919,15.306c4.935,4.099 10.329,7.57 16.184,10.414c5.855,2.844 11.752,5.269 17.69,7.277c5.939,2.007 11.375,3.972 16.31,5.896c4.935,1.924 8.908,4.099 11.919,6.524c3.011,2.426 4.517,5.479 4.517,9.159c-0,3.68 -1.757,6.566 -5.27,8.657c-3.513,2.091 -8.698,3.136 -15.557,3.136c-8.197,0 -15.892,-1.631 -23.085,-4.893c-7.193,-3.262 -14.051,-7.987 -20.575,-14.177l-31.366,31.365c9.535,9.703 19.949,16.77 31.24,21.203c11.292,4.433 24.549,6.65 39.771,6.65Z" style="" />
	</g>
</svg>
