<svg width="100%" height="100%" viewBox="0 0 1888 451" version="1.1" xmlns="http://www.w3.org/2000/svg" xmlns:xlink="http://www.w3.org/1999/xlink" xml:space="preserve" xmlns:serif="http://www.serif.com/" style="fill-rule:evenodd;clip-rule:evenodd;stroke-linejoin:round;stroke-miterlimit:2;">
	<g>
		<g id="Monochrome">
			<path d="M0,85.625l0,-85.625l319.558,-0l-319.558,85.625Zm381.645,-85.625l80.706,0.001l0.001,301.201l-80.707,-301.202Zm80.706,365.232l-0,85.621l-319.553,0.002l319.553,-85.623Zm-381.641,85.624l-80.708,-0.001l-0.001,-301.208l80.709,301.209Z" style="fill-rule:nonzero;" />
			<path d="M347.907,35.705l79.224,295.658l-312.687,83.785l-79.224,-295.658l312.687,-83.785Zm-142.197,71l-1.239,55.37l-40.504,-37.774c-1.587,-1.48 -3.998,-1.633 -5.759,-0.367c-1.762,1.267 -2.385,3.601 -1.487,5.577l22.907,50.425l-52.882,-16.46c-2.071,-0.645 -4.31,0.263 -5.348,2.169c-1.038,1.905 -0.586,4.279 1.08,5.669l42.517,35.492l-54.786,8.115c-2.147,0.318 -3.77,2.108 -3.878,4.275c-0.108,2.167 1.329,4.109 3.433,4.639l53.706,13.53l-45.84,31.082c-1.796,1.218 -2.482,3.534 -1.639,5.534c0.843,1.999 2.98,3.126 5.106,2.69l54.258,-11.112l-27.814,47.893c-1.09,1.877 -0.703,4.261 0.924,5.697c1.627,1.436 4.041,1.523 5.768,0.209l44.063,-33.554l-4.28,55.219c-0.168,2.163 1.216,4.144 3.304,4.732c2.089,0.587 4.302,-0.382 5.287,-2.315l25.142,-49.349l20.102,51.607c0.788,2.022 2.894,3.206 5.03,2.83c2.137,-0.377 3.711,-2.211 3.76,-4.38l1.239,-55.37l40.504,37.774c1.586,1.48 3.998,1.633 5.759,0.367c1.762,-1.267 2.385,-3.601 1.487,-5.577l-22.907,-50.425l52.882,16.46c2.071,0.645 4.31,-0.263 5.348,-2.169c1.038,-1.905 0.586,-4.279 -1.08,-5.669l-42.517,-35.492l54.786,-8.115c2.147,-0.318 3.77,-2.107 3.878,-4.275c0.108,-2.167 -1.329,-4.109 -3.433,-4.639l-53.706,-13.53l45.84,-31.082c1.796,-1.218 2.482,-3.534 1.639,-5.534c-0.843,-1.999 -2.98,-3.126 -5.106,-2.69l-54.258,11.112l27.814,-47.893c1.09,-1.876 0.703,-4.261 -0.924,-5.697c-1.627,-1.436 -4.041,-1.523 -5.768,-0.209l-44.063,33.554l4.28,-55.218c0.168,-2.164 -1.216,-4.145 -3.304,-4.732c-2.089,-0.588 -4.302,0.381 -5.288,2.314l-25.141,49.349l-20.102,-51.607c-0.788,-2.022 -2.894,-3.206 -5.031,-2.829c-2.137,0.376 -3.71,2.21 -3.759,4.379Z" style="fill-rule:nonzero;" />
		</g>
		<g transform="matrix(5.66181,0,0,5.66181,-40149.6,-853.009)">
			<g transform="matrix(57.2379,0,0,57.2379,7190,204)">
				<path d="M0.043,-0l-0,-0.282c-0,-0.042 0.009,-0.079 0.027,-0.111c0.018,-0.033 0.044,-0.058 0.077,-0.076c0.033,-0.019 0.072,-0.028 0.116,-0.028c0.044,0 0.082,0.01 0.114,0.029c0.032,0.019 0.057,0.047 0.074,0.086l-0.05,0c0.017,-0.039 0.042,-0.068 0.074,-0.087c0.032,-0.018 0.07,-0.028 0.113,-0.028c0.045,0 0.084,0.009 0.117,0.028c0.033,0.018 0.058,0.043 0.076,0.076c0.019,0.032 0.028,0.069 0.028,0.111l0,0.282l-0.153,-0l0,-0.275c0,-0.027 -0.007,-0.048 -0.021,-0.064c-0.013,-0.014 -0.032,-0.022 -0.056,-0.022c-0.024,0 -0.043,0.008 -0.056,0.023c-0.014,0.015 -0.021,0.036 -0.021,0.063l0,0.275l-0.153,-0l0,-0.275c0,-0.027 -0.007,-0.048 -0.02,-0.064c-0.013,-0.014 -0.032,-0.022 -0.056,-0.022c-0.024,0 -0.043,0.008 -0.056,0.023c-0.014,0.015 -0.021,0.036 -0.021,0.063l0,0.275l-0.153,-0Z" style="fill-rule:nonzero;" />
			</g>
			<g transform="matrix(57.2379,0,0,57.2379,7238.14,204)">
				<path d="M0.204,0.002l-0.2,-0.488l0.165,0l0.127,0.387l-0.061,-0l0.13,-0.387l0.165,0l-0.208,0.488l-0.118,-0Zm-0.125,0.203l0.146,-0.315l0.097,0.112l-0.086,0.203l-0.157,-0Z" style="fill-rule:nonzero;" />
			</g>
			<g transform="matrix(57.2379,0,0,57.2379,7267.1,204)">
				<path d="M0.231,0.012c-0.029,-0 -0.057,-0.004 -0.085,-0.011c-0.027,-0.007 -0.053,-0.018 -0.077,-0.032c-0.023,-0.013 -0.043,-0.029 -0.06,-0.047l0.087,-0.088c0.016,0.017 0.035,0.031 0.057,0.04c0.022,0.01 0.046,0.015 0.072,0.015c0.018,-0 0.032,-0.003 0.041,-0.008c0.01,-0.005 0.015,-0.013 0.015,-0.022c0,-0.012 -0.006,-0.021 -0.018,-0.028c-0.011,-0.006 -0.026,-0.012 -0.044,-0.017c-0.018,-0.005 -0.037,-0.01 -0.057,-0.016c-0.02,-0.006 -0.039,-0.014 -0.057,-0.025c-0.018,-0.011 -0.033,-0.026 -0.044,-0.045c-0.011,-0.019 -0.017,-0.043 -0.017,-0.072c-0,-0.031 0.008,-0.059 0.024,-0.082c0.016,-0.023 0.039,-0.041 0.068,-0.054c0.029,-0.013 0.064,-0.02 0.103,-0.02c0.041,0 0.079,0.007 0.114,0.022c0.035,0.014 0.064,0.035 0.086,0.063l-0.087,0.088c-0.015,-0.018 -0.033,-0.031 -0.052,-0.038c-0.019,-0.007 -0.037,-0.011 -0.055,-0.011c-0.017,-0 -0.03,0.002 -0.039,0.007c-0.009,0.005 -0.013,0.013 -0.013,0.022c-0,0.01 0.006,0.018 0.017,0.024c0.011,0.006 0.026,0.011 0.044,0.016c0.018,0.005 0.037,0.01 0.057,0.017c0.02,0.007 0.039,0.016 0.057,0.027c0.018,0.011 0.033,0.026 0.044,0.045c0.011,0.019 0.017,0.044 0.017,0.075c0,0.047 -0.018,0.085 -0.053,0.113c-0.036,0.028 -0.084,0.042 -0.145,0.042Z" style="fill-rule:nonzero;" />
			</g>
			<g transform="matrix(57.2379,0,0,57.2379,7292.74,204)">
				<path d="M0.223,-0l-0.219,-0.48l0.122,0l0.167,0.391l-0.072,-0l0.168,-0.391l0.117,0l-0.219,0.48l-0.064,-0Z" style="fill-rule:nonzero;" />
			</g>
			<g transform="matrix(57.2379,0,0,57.2379,7320.45,204)">
				<path d="M0.284,0.01c-0.048,-0 -0.091,-0.011 -0.13,-0.033c-0.038,-0.021 -0.068,-0.051 -0.091,-0.089c-0.022,-0.038 -0.033,-0.081 -0.033,-0.128c-0,-0.047 0.011,-0.09 0.033,-0.128c0.022,-0.037 0.052,-0.067 0.089,-0.089c0.038,-0.022 0.08,-0.033 0.126,-0.033c0.045,0 0.084,0.01 0.118,0.031c0.035,0.021 0.062,0.049 0.081,0.085c0.02,0.036 0.03,0.077 0.03,0.123c0,0.008 -0.001,0.016 -0.002,0.024c-0.001,0.009 -0.002,0.018 -0.004,0.028l-0.394,-0l0,-0.09l0.337,-0l-0.041,0.036c-0.001,-0.029 -0.007,-0.054 -0.017,-0.074c-0.01,-0.02 -0.024,-0.035 -0.042,-0.046c-0.019,-0.011 -0.041,-0.016 -0.068,-0.016c-0.028,-0 -0.052,0.006 -0.073,0.018c-0.021,0.012 -0.037,0.029 -0.048,0.05c-0.011,0.022 -0.017,0.048 -0.017,0.078c0,0.03 0.006,0.056 0.018,0.079c0.012,0.023 0.029,0.04 0.051,0.052c0.022,0.013 0.047,0.019 0.076,0.019c0.025,-0 0.047,-0.004 0.068,-0.013c0.021,-0.009 0.039,-0.021 0.054,-0.038l0.07,0.071c-0.023,0.027 -0.052,0.048 -0.085,0.062c-0.033,0.014 -0.069,0.021 -0.106,0.021Z" style="fill-rule:nonzero;" />
			</g>
			<g transform="matrix(57.2379,0,0,57.2379,7350.44,204)">
				<path d="M0.061,-0l0,-0.48l0.11,0l0,0.48l-0.11,-0Zm0.11,-0.267l-0.038,-0.019c0,-0.061 0.014,-0.11 0.041,-0.147c0.027,-0.038 0.067,-0.057 0.122,-0.057c0.024,0 0.046,0.004 0.065,0.013c0.019,0.009 0.037,0.023 0.054,0.042l-0.072,0.074c-0.009,-0.009 -0.018,-0.016 -0.029,-0.02c-0.011,-0.004 -0.023,-0.006 -0.037,-0.006c-0.031,0 -0.056,0.01 -0.076,0.029c-0.02,0.019 -0.03,0.05 -0.03,0.091Z" style="fill-rule:nonzero;" />
			</g>
			<g transform="matrix(57.2379,0,0,57.2379,7372.59,204)">
				<path d="M0.218,0.01c-0.027,-0 -0.052,-0.004 -0.077,-0.011c-0.025,-0.007 -0.047,-0.017 -0.068,-0.029c-0.021,-0.013 -0.039,-0.029 -0.054,-0.048l0.07,-0.07c0.017,0.019 0.036,0.034 0.057,0.044c0.022,0.009 0.047,0.014 0.074,0.014c0.025,0 0.043,-0.004 0.056,-0.011c0.013,-0.007 0.019,-0.018 0.019,-0.032c-0,-0.015 -0.006,-0.026 -0.018,-0.034c-0.012,-0.008 -0.028,-0.015 -0.047,-0.02c-0.019,-0.006 -0.039,-0.012 -0.06,-0.018c-0.021,-0.006 -0.041,-0.014 -0.06,-0.024c-0.019,-0.011 -0.034,-0.025 -0.046,-0.043c-0.012,-0.018 -0.018,-0.041 -0.018,-0.07c-0,-0.031 0.007,-0.057 0.021,-0.079c0.015,-0.022 0.035,-0.039 0.061,-0.051c0.027,-0.012 0.058,-0.018 0.095,-0.018c0.039,0 0.073,0.007 0.102,0.021c0.03,0.013 0.055,0.034 0.075,0.061l-0.07,0.07c-0.014,-0.017 -0.03,-0.03 -0.048,-0.039c-0.018,-0.009 -0.039,-0.013 -0.062,-0.013c-0.022,0 -0.039,0.003 -0.051,0.01c-0.012,0.007 -0.018,0.016 -0.018,0.029c-0,0.013 0.006,0.024 0.018,0.031c0.012,0.007 0.027,0.014 0.046,0.019c0.019,0.005 0.039,0.011 0.06,0.017c0.021,0.007 0.041,0.015 0.06,0.026c0.019,0.011 0.035,0.026 0.047,0.044c0.012,0.019 0.018,0.043 0.018,0.072c-0,0.047 -0.016,0.084 -0.049,0.111c-0.033,0.027 -0.077,0.041 -0.133,0.041Z" style="fill-rule:nonzero;" />
			</g>
			<g transform="matrix(57.2379,0,0,57.2379,7396.63,204)">
				<path d="M0.289,0.01c-0.051,-0 -0.095,-0.011 -0.134,-0.034c-0.039,-0.022 -0.07,-0.052 -0.092,-0.09c-0.022,-0.038 -0.033,-0.08 -0.033,-0.127c0,-0.047 0.011,-0.089 0.034,-0.126c0.022,-0.037 0.052,-0.067 0.091,-0.09c0.038,-0.022 0.081,-0.033 0.129,-0.033c0.049,0 0.091,0.011 0.125,0.032c0.034,0.022 0.061,0.053 0.082,0.092l-0.281,0.282l-0.064,-0.064l0.254,-0.254l0.002,0.081c-0.01,-0.021 -0.024,-0.038 -0.042,-0.05c-0.018,-0.012 -0.043,-0.018 -0.074,-0.018c-0.03,-0 -0.056,0.006 -0.078,0.019c-0.023,0.013 -0.04,0.03 -0.052,0.052c-0.012,0.023 -0.018,0.048 -0.018,0.077c0,0.029 0.006,0.055 0.018,0.077c0.012,0.023 0.029,0.04 0.052,0.052c0.023,0.013 0.049,0.019 0.08,0.019c0.027,-0 0.052,-0.004 0.073,-0.013c0.021,-0.009 0.039,-0.021 0.054,-0.038l0.07,0.071c-0.023,0.027 -0.052,0.048 -0.085,0.062c-0.034,0.014 -0.071,0.021 -0.111,0.021Z" style="fill-rule:nonzero;" />
			</g>
		</g>
	</g>
</svg>
