<?xml version="1.0" encoding="UTF-8" standalone="no"?><!DOCTYPE svg PUBLIC "-//W3C//DTD SVG 1.1//EN" "http://www.w3.org/Graphics/SVG/1.1/DTD/svg11.dtd"><svg width="100%" height="100%" viewBox="0 0 1642 1600" version="1.1" xmlns="http://www.w3.org/2000/svg" xmlns:xlink="http://www.w3.org/1999/xlink" xml:space="preserve" xmlns:serif="http://www.serif.com/" style="fill-rule:evenodd;clip-rule:evenodd;stroke-linejoin:round;stroke-miterlimit:2;"><g><g id="Colour"><path d="M72.493,554.738l0.005,974.856l261.209,0l-261.214,-974.856Zm462.162,974.853l1034.23,-0.005l-0,-277.125l-1034.23,277.13Zm773.019,-1459.18l261.215,974.835l-0.007,-974.834l-261.208,-0.001Zm-1235.18,-0.002l0.001,277.125l1034.24,-277.125l-1034.25,-0Z" style="fill:#ff2a2a;fill-rule:nonzero;"/><path d="M1294.22,20.17l326.469,1218.42l-1273.52,341.239l-308.958,-1153.04l-17.52,-65.38l1273.53,-341.241Zm-1107.74,436.964l256.406,956.894l1012.01,-271.17l-256.406,-956.893l-1012.01,271.169Z" style="fill:#fff;fill-rule:nonzero;"/><path d="M1198.49,185.965l256.406,956.893l-1012.01,271.17l-256.406,-956.894l1012.01,-271.169Z" style="fill:#1d1d9d;fill-rule:nonzero;"/><path d="M738.27,415.756c0.157,-7.021 5.25,-12.955 12.166,-14.174c6.916,-1.22 13.731,2.614 16.28,9.158l65.062,167.025l81.369,-159.717c3.188,-6.258 10.351,-9.394 17.112,-7.492c6.76,1.903 11.237,8.314 10.694,15.315l-13.85,178.714l142.609,-108.595c5.587,-4.255 13.402,-3.973 18.667,0.674c5.266,4.647 6.518,12.366 2.991,18.439l-90.02,155.006l175.604,-35.965c6.88,-1.409 13.798,2.235 16.526,8.707c2.728,6.471 0.507,13.969 -5.305,17.91l-148.36,100.597l173.819,43.789c6.81,1.715 11.461,8.001 11.111,15.015c-0.35,7.014 -5.604,12.805 -12.551,13.835l-177.315,26.264l137.606,114.869c5.391,4.5 6.855,12.181 3.496,18.349c-3.359,6.168 -10.605,9.106 -17.311,7.019l-171.15,-53.271l74.139,163.198c2.904,6.394 0.89,13.95 -4.812,18.05c-5.702,4.099 -13.506,3.602 -18.642,-1.188l-131.088,-122.254l-4.012,179.204c-0.157,7.021 -5.25,12.954 -12.167,14.174c-6.916,1.219 -13.731,-2.614 -16.28,-9.158l-65.062,-167.025l-81.369,159.717c-3.188,6.257 -10.351,9.393 -17.111,7.491c-6.761,-1.902 -11.237,-8.313 -10.695,-15.315l13.851,-178.713l-142.61,108.595c-5.587,4.255 -13.401,3.972 -18.667,-0.675c-5.266,-4.647 -6.517,-12.365 -2.99,-18.438l90.019,-155.006l-175.604,35.965c-6.88,1.409 -13.798,-2.236 -16.526,-8.707c-2.728,-6.472 -0.507,-13.969 5.306,-17.91l148.359,-100.597l-173.818,-43.789c-6.81,-1.716 -11.462,-8.001 -11.112,-15.015c0.351,-7.015 5.605,-12.806 12.552,-13.835l177.314,-26.264l-137.606,-114.869c-5.391,-4.5 -6.854,-12.182 -3.496,-18.349c3.359,-6.168 10.605,-9.106 17.311,-7.019l171.151,53.271l-74.139,-163.199c-2.905,-6.394 -0.891,-13.949 4.811,-18.049c5.703,-4.099 13.506,-3.602 18.642,1.188l131.088,122.254l4.013,-179.204Z" style="fill:#ffd42b;"/></g></g></svg>