<svg width="100%" height="100%" viewBox="0 0 1025 205" version="1.1" xmlns="http://www.w3.org/2000/svg" xmlns:xlink="http://www.w3.org/1999/xlink" xml:space="preserve" xmlns:serif="http://www.serif.com/" style="fill-rule:evenodd;clip-rule:evenodd;stroke-linejoin:round;stroke-miterlimit:2;">
	<g transform="matrix(2.53602,0,0,2.53602,-565.709,-1278.57)">
		<g id="SymbolLogo.svg" transform="matrix(0.303451,0,0,0.303451,263.404,544.498)">
			<g transform="matrix(1,0,0,1,-132.92,-132.92)">
				<clipPath id="_clip1">
					<rect x="0" y="0" width="265.84" height="265.84" />
				</clipPath>
				<g clip-path="url(#_clip1)">
					<g id="Layer_1-2">
						<g>
							<rect x="19.01" y="19.01" width="227.83" height="227.83" style="fill:rgb(255,42,42);" />
							<path d="M0,56.18L209.67,0L265.84,209.67L56.18,265.84L0,56.18" style="fill:white;fill-rule:nonzero;" />
							<path d="M24.06,70.59L195.78,24.58L241.79,196.3L70.07,242.31L24.06,70.59" style="fill:rgb(29,29,157);fill-rule:nonzero;" />
							<path d="M195.84,138.06L179.51,144.33L195.24,155.76L194.66,193.97L156.6,194.41L145.22,178.75L143.18,198.11L109.8,216.71L90.39,183.96L98.35,166.09L80.95,168.85L54.34,141.42L80.95,114.19L107.02,131.93L97.99,141.17L110.21,153.76L118.2,152.5L114.54,160.71L123.46,175.74L138.78,167.2L139.72,158.31L144.94,165.5L162.42,165.3L162.69,147.76L155.46,142.51L162.96,139.63L167.29,122.7L150.41,117.9L141.94,124.76L140.79,113.88L125.56,105.31L119.27,115.83L94.77,96.12L114.38,63.32L147.56,81.97L150.05,105.68L168.51,90.73L205.27,101.18L195.84,138.06" style="fill:rgb(255,212,43);fill-rule:nonzero;" />
							<path d="M138.11,141.77C137.97,142 137.83,142.2 137.68,142.39C137.65,142.42 137.63,142.46 137.6,142.49C137.55,142.55 137.51,142.6 137.46,142.65C137.39,142.73 137.32,142.8 137.26,142.87C137.21,142.92 137.16,142.97 137.12,143.01C137.08,143.05 137.04,143.08 137,143.12C136.98,143.14 136.95,143.16 136.93,143.18C136.89,143.22 136.84,143.25 136.8,143.29C136.75,143.32 136.71,143.36 136.67,143.39C136.64,143.41 136.6,143.44 136.57,143.46C136.52,143.49 136.48,143.52 136.43,143.55C136.37,143.59 136.31,143.62 136.25,143.66C136.19,143.7 136.13,143.73 136.07,143.75C136.05,143.76 136.04,143.77 136.02,143.77C135.98,143.79 135.93,143.81 135.89,143.83L135.88,143.83C135.83,143.85 135.77,143.88 135.72,143.9C135.66,143.92 135.6,143.95 135.54,143.96C135.48,143.98 135.43,144 135.37,144.01C134.39,144.27 133.46,144.09 132.81,143.87C132.74,143.84 132.66,143.82 132.59,143.79C132.14,143.62 131.87,143.44 131.87,143.44L41.65,79.79L59.98,74.87L136.52,135.93C136.52,135.93 140.3,138.21 138.09,141.77" style="fill:rgb(255,212,43);fill-rule:nonzero;" />
						</g>
					</g>
				</g>
			</g>
		</g>
		<g transform="matrix(0.947779,0,0,0.947779,-6495.13,363.971)">
			<g transform="matrix(57.2379,0,0,57.2379,7190,204)">
				<path d="M0.043,-0L0.043,-0.282C0.043,-0.324 0.052,-0.361 0.07,-0.393C0.088,-0.426 0.114,-0.451 0.147,-0.469C0.18,-0.488 0.219,-0.497 0.263,-0.497C0.307,-0.497 0.345,-0.487 0.377,-0.468C0.409,-0.449 0.434,-0.421 0.451,-0.382L0.401,-0.382C0.418,-0.421 0.443,-0.449 0.475,-0.468C0.507,-0.487 0.545,-0.497 0.588,-0.497C0.633,-0.497 0.672,-0.488 0.705,-0.469C0.738,-0.451 0.763,-0.426 0.781,-0.393C0.8,-0.361 0.809,-0.324 0.809,-0.282L0.809,-0L0.656,-0L0.656,-0.275C0.656,-0.302 0.649,-0.323 0.635,-0.338C0.622,-0.353 0.603,-0.361 0.579,-0.361C0.555,-0.361 0.536,-0.353 0.522,-0.338C0.509,-0.323 0.502,-0.302 0.502,-0.275L0.502,-0L0.349,-0L0.349,-0.275C0.349,-0.302 0.342,-0.323 0.329,-0.338C0.316,-0.353 0.297,-0.361 0.273,-0.361C0.249,-0.361 0.23,-0.353 0.216,-0.338C0.203,-0.323 0.196,-0.302 0.196,-0.275L0.196,-0L0.043,-0Z" style="fill:rgb(39,39,39);fill-rule:nonzero;" />
			</g>
			<g transform="matrix(57.2379,0,0,57.2379,7238.14,204)">
				<path d="M0.204,0.002L0.004,-0.486L0.169,-0.486L0.296,-0.099L0.235,-0.099L0.365,-0.486L0.53,-0.486L0.322,0.002L0.204,0.002ZM0.079,0.205L0.225,-0.11L0.322,0.002L0.236,0.205L0.079,0.205Z" style="fill:rgb(39,39,39);fill-rule:nonzero;" />
			</g>
			<g transform="matrix(57.2379,0,0,57.2379,7267.1,204)">
				<path d="M0.231,0.012C0.202,0.012 0.174,0.008 0.146,0.001C0.119,-0.006 0.093,-0.017 0.069,-0.03C0.046,-0.044 0.026,-0.06 0.009,-0.078L0.096,-0.166C0.112,-0.149 0.131,-0.135 0.153,-0.125C0.175,-0.116 0.199,-0.111 0.225,-0.111C0.243,-0.111 0.257,-0.114 0.266,-0.119C0.276,-0.124 0.281,-0.132 0.281,-0.141C0.281,-0.153 0.275,-0.162 0.263,-0.168C0.252,-0.175 0.237,-0.18 0.219,-0.185C0.201,-0.19 0.182,-0.196 0.162,-0.202C0.142,-0.208 0.123,-0.216 0.105,-0.227C0.087,-0.238 0.072,-0.252 0.061,-0.271C0.05,-0.29 0.044,-0.315 0.044,-0.344C0.044,-0.375 0.052,-0.402 0.068,-0.425C0.084,-0.448 0.107,-0.467 0.136,-0.48C0.165,-0.493 0.2,-0.5 0.239,-0.5C0.28,-0.5 0.318,-0.493 0.353,-0.478C0.388,-0.464 0.417,-0.443 0.439,-0.415L0.352,-0.327C0.337,-0.345 0.319,-0.358 0.3,-0.365C0.281,-0.372 0.263,-0.376 0.245,-0.376C0.228,-0.376 0.215,-0.373 0.206,-0.368C0.197,-0.363 0.193,-0.356 0.193,-0.347C0.193,-0.337 0.199,-0.329 0.21,-0.323C0.221,-0.317 0.236,-0.312 0.254,-0.307C0.272,-0.302 0.291,-0.297 0.311,-0.29C0.331,-0.283 0.35,-0.274 0.368,-0.263C0.386,-0.252 0.401,-0.236 0.412,-0.217C0.423,-0.198 0.429,-0.174 0.429,-0.143C0.429,-0.096 0.411,-0.058 0.375,-0.03C0.34,-0.002 0.292,0.012 0.231,0.012Z" style="fill:rgb(39,39,39);fill-rule:nonzero;" />
			</g>
			<g transform="matrix(57.2379,0,0,57.2379,7292.74,204)">
				<path d="M0.223,-0L0.004,-0.48L0.126,-0.48L0.293,-0.089L0.221,-0.089L0.389,-0.48L0.506,-0.48L0.287,-0L0.223,-0Z" style="fill:rgb(39,39,39);fill-rule:nonzero;" />
			</g>
			<g transform="matrix(57.2379,0,0,57.2379,7320.45,204)">
				<path d="M0.284,0.01C0.236,0.01 0.193,-0.001 0.154,-0.022C0.116,-0.044 0.086,-0.074 0.063,-0.112C0.041,-0.15 0.03,-0.193 0.03,-0.24C0.03,-0.287 0.041,-0.33 0.063,-0.367C0.085,-0.405 0.115,-0.435 0.152,-0.457C0.19,-0.479 0.232,-0.49 0.278,-0.49C0.323,-0.49 0.362,-0.48 0.396,-0.459C0.431,-0.438 0.458,-0.41 0.477,-0.374C0.497,-0.338 0.507,-0.297 0.507,-0.251C0.507,-0.243 0.506,-0.235 0.505,-0.226C0.504,-0.218 0.503,-0.209 0.501,-0.199L0.107,-0.199L0.107,-0.289L0.444,-0.289L0.403,-0.253C0.402,-0.282 0.396,-0.307 0.386,-0.327C0.376,-0.347 0.362,-0.362 0.343,-0.373C0.325,-0.384 0.303,-0.389 0.276,-0.389C0.248,-0.389 0.224,-0.383 0.203,-0.371C0.182,-0.359 0.166,-0.342 0.155,-0.32C0.144,-0.299 0.138,-0.273 0.138,-0.243C0.138,-0.213 0.144,-0.187 0.156,-0.164C0.168,-0.141 0.185,-0.124 0.207,-0.111C0.229,-0.099 0.254,-0.093 0.283,-0.093C0.308,-0.093 0.33,-0.097 0.351,-0.106C0.372,-0.115 0.39,-0.127 0.405,-0.144L0.475,-0.073C0.452,-0.046 0.423,-0.025 0.39,-0.011C0.357,0.003 0.321,0.01 0.284,0.01Z" style="fill:rgb(39,39,39);fill-rule:nonzero;" />
			</g>
			<g transform="matrix(57.2379,0,0,57.2379,7350.44,204)">
				<path d="M0.061,-0L0.061,-0.48L0.171,-0.48L0.171,-0L0.061,-0ZM0.171,-0.267L0.133,-0.286C0.133,-0.347 0.146,-0.396 0.173,-0.433C0.2,-0.471 0.241,-0.49 0.296,-0.49C0.32,-0.49 0.342,-0.486 0.361,-0.477C0.38,-0.468 0.398,-0.454 0.415,-0.435L0.343,-0.361C0.334,-0.37 0.325,-0.377 0.314,-0.381C0.303,-0.385 0.291,-0.387 0.277,-0.387C0.246,-0.387 0.221,-0.377 0.201,-0.358C0.181,-0.339 0.171,-0.308 0.171,-0.267Z" style="fill:rgb(39,39,39);fill-rule:nonzero;" />
			</g>
			<g transform="matrix(57.2379,0,0,57.2379,7372.59,204)">
				<path d="M0.218,0.01C0.191,0.01 0.166,0.007 0.141,-0C0.116,-0.007 0.094,-0.017 0.073,-0.03C0.052,-0.043 0.034,-0.059 0.019,-0.078L0.089,-0.148C0.106,-0.129 0.125,-0.114 0.146,-0.104C0.168,-0.095 0.193,-0.09 0.22,-0.09C0.245,-0.09 0.263,-0.094 0.276,-0.101C0.289,-0.108 0.295,-0.119 0.295,-0.133C0.295,-0.148 0.289,-0.159 0.277,-0.167C0.265,-0.175 0.249,-0.182 0.23,-0.187C0.211,-0.193 0.191,-0.199 0.17,-0.205C0.149,-0.211 0.129,-0.219 0.11,-0.229C0.091,-0.24 0.076,-0.254 0.064,-0.272C0.052,-0.29 0.046,-0.313 0.046,-0.342C0.046,-0.373 0.053,-0.399 0.067,-0.421C0.082,-0.443 0.102,-0.46 0.128,-0.472C0.155,-0.484 0.186,-0.49 0.223,-0.49C0.262,-0.49 0.296,-0.483 0.325,-0.469C0.355,-0.456 0.38,-0.435 0.4,-0.408L0.33,-0.338C0.316,-0.355 0.3,-0.368 0.282,-0.377C0.264,-0.386 0.243,-0.39 0.22,-0.39C0.198,-0.39 0.181,-0.387 0.169,-0.38C0.157,-0.373 0.151,-0.364 0.151,-0.351C0.151,-0.338 0.157,-0.327 0.169,-0.32C0.181,-0.313 0.196,-0.306 0.215,-0.301C0.234,-0.296 0.254,-0.29 0.275,-0.283C0.296,-0.277 0.316,-0.268 0.335,-0.257C0.354,-0.246 0.37,-0.232 0.382,-0.213C0.394,-0.195 0.4,-0.171 0.4,-0.142C0.4,-0.095 0.384,-0.058 0.351,-0.031C0.318,-0.004 0.274,0.01 0.218,0.01Z" style="fill:rgb(39,39,39);fill-rule:nonzero;" />
			</g>
			<g transform="matrix(57.2379,0,0,57.2379,7396.63,204)">
				<path d="M0.289,0.01C0.238,0.01 0.193,-0.001 0.154,-0.023C0.115,-0.046 0.085,-0.076 0.063,-0.114C0.041,-0.152 0.03,-0.194 0.03,-0.241C0.03,-0.288 0.041,-0.33 0.063,-0.367C0.086,-0.404 0.116,-0.434 0.154,-0.456C0.193,-0.479 0.236,-0.49 0.284,-0.49C0.333,-0.49 0.375,-0.479 0.409,-0.457C0.443,-0.436 0.47,-0.405 0.491,-0.366L0.21,-0.084L0.146,-0.148L0.4,-0.402L0.402,-0.321C0.392,-0.342 0.378,-0.359 0.36,-0.371C0.342,-0.383 0.317,-0.389 0.286,-0.389C0.256,-0.389 0.23,-0.383 0.207,-0.37C0.185,-0.357 0.168,-0.34 0.156,-0.317C0.144,-0.295 0.138,-0.27 0.138,-0.241C0.138,-0.212 0.144,-0.186 0.156,-0.163C0.168,-0.141 0.185,-0.124 0.208,-0.111C0.231,-0.099 0.257,-0.093 0.288,-0.093C0.315,-0.093 0.34,-0.097 0.361,-0.106C0.382,-0.115 0.4,-0.127 0.415,-0.144L0.485,-0.073C0.462,-0.046 0.433,-0.025 0.399,-0.011C0.366,0.003 0.329,0.01 0.289,0.01Z" style="fill:rgb(39,39,39);fill-rule:nonzero;" />
			</g>
		</g>
		<g transform="matrix(1,0,0,1,-7.96881,0)">
			<path d="M634.932,535.937L634.932,553.063C634.932,557.789 631.095,561.626 626.369,561.626L567.936,561.626C563.209,561.626 559.373,557.789 559.373,553.063L559.373,535.937C559.373,531.211 563.209,527.374 567.936,527.374L626.369,527.374C631.095,527.374 634.932,531.211 634.932,535.937ZM610.134,545.147L613.807,550.452L617.859,550.452L621.532,545.184L621.532,555.772L627.801,555.772L627.801,533.228L623.21,533.228L615.847,544.05L608.456,533.228L603.865,533.228L603.865,555.772L610.134,555.772L610.134,545.147ZM590.63,555.772L596.962,555.772L596.962,533.228L590.63,533.228L590.63,555.772ZM575.464,556.152C578.44,556.152 580.741,555.529 582.366,554.284C584.013,553.017 584.836,551.233 584.836,548.933C584.836,547.793 584.646,546.822 584.266,546.02C583.886,545.218 583.379,544.553 582.746,544.025C582.134,543.476 581.459,543.033 580.72,542.695C579.981,542.336 579.232,542.03 578.472,541.777C577.733,541.524 577.047,541.281 576.414,541.049C575.802,540.817 575.306,540.563 574.926,540.289C574.546,539.993 574.356,539.624 574.356,539.181C574.356,538.759 574.546,538.442 574.926,538.231C575.327,538.02 575.854,537.914 576.509,537.914C577.332,537.914 578.092,538.083 578.788,538.421C579.485,538.738 580.182,539.234 580.878,539.909L584.868,535.951C583.918,534.959 582.715,534.199 581.258,533.672C579.823,533.123 578.261,532.848 576.572,532.848C574.862,532.848 573.374,533.133 572.108,533.703C570.841,534.252 569.86,535.054 569.163,536.11C568.467,537.165 568.118,538.421 568.118,539.877C568.118,540.996 568.308,541.946 568.688,542.727C569.068,543.487 569.564,544.131 570.176,544.658C570.81,545.165 571.496,545.598 572.234,545.956C572.973,546.315 573.712,546.621 574.451,546.875C575.211,547.128 575.897,547.381 576.509,547.635C577.142,547.867 577.649,548.141 578.029,548.458C578.409,548.753 578.598,549.133 578.598,549.598C578.598,550.062 578.377,550.431 577.934,550.706C577.49,550.959 576.836,551.086 575.971,551.086C574.936,551.086 573.965,550.885 573.058,550.484C572.15,550.062 571.285,549.46 570.461,548.679L566.504,552.637C567.707,553.861 569.015,554.758 570.43,555.328C571.865,555.877 573.543,556.152 575.464,556.152Z" style="fill:rgb(255,73,73);" />
		</g>
	</g>
</svg>
