<?xml version="1.0" encoding="UTF-8" standalone="no"?><!DOCTYPE svg PUBLIC "-//W3C//DTD SVG 1.1//EN" "http://www.w3.org/Graphics/SVG/1.1/DTD/svg11.dtd"><svg width="100%" height="100%" viewBox="0 0 8892 2225" version="1.1" xmlns="http://www.w3.org/2000/svg" xmlns:xlink="http://www.w3.org/1999/xlink" xml:space="preserve" xmlns:serif="http://www.serif.com/" style="fill-rule:evenodd;clip-rule:evenodd;stroke-linejoin:round;stroke-miterlimit:2;"><rect id="Artboard12" x="0" y="0" width="8888.875" height="2222.221" style="fill:none;"/><path d="M232.204,431.271c-128.238,-73.558 -232.204,-13.3 -232.204,134.487l0,1090.6c0,147.933 103.967,208.117 232.204,134.625l953.237,-546.675c128.283,-73.583 128.283,-192.804 0,-266.371l-953.237,-546.667Z" style="fill-rule:nonzero;"/><g><g><g><path d="M4217.18,1591.046c209.564,0 327.335,-93.524 327.335,-277.109l0,-17.319c0,-131.627 -72.741,-199.172 -195.708,-264.986l-71.009,-39.834c-48.494,-25.979 -67.545,-48.494 -67.545,-77.937l0,-8.66c0,-34.639 20.783,-57.154 90.061,-57.154l159.338,0c45.03,0 71.009,-20.783 71.009,-65.813l0,-64.082c0,-41.566 -20.783,-65.813 -65.813,-76.205c-64.082,-13.855 -116.04,-17.319 -169.729,-17.319c-209.564,0 -327.335,93.524 -327.335,277.109l0,8.66c0,129.895 72.741,200.904 195.708,268.45l71.009,39.834c48.494,25.979 67.545,48.494 67.545,76.205l0,15.587c0,34.639 -20.783,57.154 -90.061,57.154l-161.07,0c-46.762,0 -71.009,24.247 -71.009,69.277l0,60.618c0,43.298 20.783,65.813 65.813,76.205c62.35,13.855 116.04,17.319 171.461,17.319Z" style="fill-rule:nonzero;"/><path d="M4996.549,1591.046c190.513,0 330.799,-84.865 330.799,-339.459l0,-521.312c0,-60.618 -31.175,-91.792 -91.792,-91.792l-57.154,0c-58.886,0 -91.792,31.175 -91.792,91.792l0,555.95c0,76.205 -34.639,98.72 -90.061,98.72c-55.422,0 -90.061,-22.515 -90.061,-98.72l0,-555.95c0,-60.618 -32.907,-91.792 -91.792,-91.792l-57.154,0c-60.618,0 -93.524,31.175 -93.524,91.792l0,521.312c0,254.594 140.287,339.459 332.531,339.459Z" style="fill-rule:nonzero;"/><path d="M5604.458,1578.923c58.886,0 91.792,-32.907 91.792,-93.524l0,-618.3c0,-12.124 3.464,-17.319 17.319,-19.051c20.783,-5.196 43.298,-5.196 64.082,-5.196c57.154,0 98.72,20.783 98.72,91.792l0,550.755c0,60.618 31.175,93.524 90.061,93.524l58.886,0c58.886,0 91.792,-32.907 91.792,-93.524l0,-550.755c0,-72.741 45.03,-91.792 90.061,-91.792c55.422,0 91.792,27.711 91.792,98.72l0,543.827c0,60.618 31.175,93.524 90.061,93.524l57.154,0c60.618,0 93.524,-32.907 93.524,-93.524l0,-543.827c0,-240.739 -128.163,-316.944 -306.552,-316.944c-69.277,0 -176.657,24.247 -237.275,96.988c-57.154,-72.741 -152.41,-96.988 -247.666,-96.988c-76.205,0 -152.41,15.587 -221.687,43.298c-55.422,22.515 -72.741,55.422 -72.741,112.576l0,704.897c0,60.618 32.907,93.524 93.524,93.524l57.154,0Z" style="fill-rule:nonzero;"/><path d="M7005.592,1591.046c74.473,0 169.729,-8.66 244.203,-39.834c57.154,-24.247 72.741,-60.618 72.741,-117.771l0,-457.23c0,-299.624 -187.049,-351.582 -389.685,-351.582c-48.494,0 -95.256,3.464 -159.338,17.319c-46.762,8.66 -67.545,34.639 -67.545,76.205l0,62.35c0,46.762 25.979,71.009 71.009,71.009l155.874,0c93.524,0 148.946,29.443 148.946,124.699l0,25.979c-41.566,-8.66 -90.061,-15.587 -150.678,-15.587c-150.678,0 -277.109,83.133 -277.109,275.377l0,32.907c0,221.687 154.142,296.161 351.582,296.161Zm-13.855,-202.636c-60.618,0 -96.988,-29.443 -96.988,-98.72l0,-27.711c0,-67.545 34.639,-98.72 96.988,-98.72c19.051,0 41.566,0 64.082,5.196c20.783,1.732 25.979,6.928 25.979,19.051l0,176.657c0,13.855 -6.928,17.319 -29.443,19.051c-17.319,3.464 -41.566,5.196 -60.618,5.196Z" style="fill-rule:nonzero;"/><path d="M7726.076,1866.423c209.564,0 381.025,-58.886 381.025,-351.582l0,-784.566c0,-60.618 -32.907,-93.524 -91.792,-93.524l-57.154,0c-58.886,0 -91.792,32.907 -91.792,93.524l0,549.023c0,13.855 -5.196,20.783 -20.783,22.515c-17.319,3.464 -41.566,5.196 -60.618,5.196c-64.082,0 -100.452,-29.443 -100.452,-98.72l0,-478.013c0,-60.618 -31.175,-93.524 -90.061,-93.524l-57.154,0c-60.618,0 -93.524,32.907 -93.524,93.524l0,464.158c0,240.739 114.308,315.212 271.913,315.212c46.762,0 103.916,-5.196 154.142,-20.783l0,32.907c0,90.061 -46.762,119.503 -142.019,119.503l-185.317,0c-45.03,0 -69.277,24.247 -69.277,71.009l0,60.618c0,41.566 20.783,67.545 65.813,76.205c69.277,13.855 119.503,17.319 187.049,17.319Z" style="fill-rule:nonzero;"/><path d="M8574.723,1591.046c74.473,0 169.729,-8.66 244.203,-39.834c57.154,-24.247 72.741,-60.618 72.741,-117.771l0,-457.23c0,-299.624 -187.049,-351.582 -389.685,-351.582c-48.494,0 -95.256,3.464 -159.338,17.319c-46.762,8.66 -67.545,34.639 -67.545,76.205l0,62.35c0,46.762 25.979,71.009 71.009,71.009l155.874,0c93.524,0 148.946,29.443 148.946,124.699l0,25.979c-41.566,-8.66 -90.061,-15.587 -150.678,-15.587c-150.678,0 -277.109,83.133 -277.109,275.377l0,32.907c0,221.687 154.142,296.161 351.582,296.161Zm-13.855,-202.636c-60.618,0 -96.988,-29.443 -96.988,-98.72l0,-27.711c0,-67.545 34.639,-98.72 96.988,-98.72c19.051,0 41.566,0 64.082,5.196c20.783,1.732 25.979,6.928 25.979,19.051l0,176.657c0,13.855 -6.928,17.319 -29.443,19.051c-17.319,3.464 -41.566,5.196 -60.618,5.196Z" style="fill-rule:nonzero;"/></g><path d="M2589.551,1852.168c-58.258,0 -112.979,16.645 -164.163,49.935c-51.184,33.29 -107.153,49.935 -167.908,49.935c-61.587,0 -117.972,-16.645 -169.156,-49.935c-51.184,-33.29 -105.489,-49.935 -162.914,-49.935c-41.613,0 -82.393,8.323 -122.342,24.968c-39.948,16.645 -78.232,32.458 -114.851,47.439c-31.626,13.316 -60.963,8.531 -88.011,-14.356c-27.048,-22.887 -40.573,-52.64 -40.573,-89.26c0,-36.619 12.484,-68.869 37.452,-96.75c24.968,-27.881 55.345,-48.895 91.132,-63.043c38.284,-14.981 75.735,-30.585 112.355,-46.814c36.619,-16.229 77.4,-24.344 122.342,-24.344c62.419,0 119.429,16.645 171.029,49.935c51.6,33.29 105.28,49.935 161.042,49.935c58.258,0 112.979,-16.645 164.163,-49.935c51.184,-33.29 107.985,-49.935 170.405,-49.935c63.252,0 120.469,16.645 171.653,49.935c51.184,33.29 105.489,49.935 162.914,49.935c57.426,0 111.73,-16.645 162.914,-49.935c51.184,-33.29 107.569,-49.935 169.156,-49.935c44.942,0 85.722,8.115 122.342,24.344c36.619,16.229 74.071,31.834 112.355,46.814c35.787,14.148 66.164,35.163 91.132,63.043c24.968,27.881 37.452,60.131 37.452,96.75c0,36.619 -13.524,66.372 -40.573,89.26c-27.048,22.887 -56.385,27.673 -88.011,14.356c-36.619,-14.981 -74.903,-30.794 -114.851,-47.439c-39.948,-16.645 -80.729,-24.968 -122.342,-24.968c-57.426,0 -111.73,16.645 -162.914,49.935c-51.184,33.29 -107.569,49.935 -169.156,49.935c-60.755,0 -116.724,-16.645 -167.908,-49.935c-51.184,-33.29 -105.905,-49.935 -164.163,-49.935Zm-646.664,-394.49c-44.11,0 -86.347,-8.323 -126.711,-24.968c-40.364,-16.645 -76.36,-40.364 -107.985,-71.158l-29.961,-32.458c-26.632,-25.8 -39.74,-55.969 -39.324,-90.508c0.416,-34.539 14.356,-65.54 41.821,-93.005c26.632,-26.632 57.01,-40.156 91.132,-40.573c34.123,-0.416 64.084,12.692 89.884,39.324l31.21,29.961c7.49,7.49 15.397,12.9 23.719,16.229c8.323,3.329 17.061,4.994 26.216,4.994l116.1,0l0,-280.887l-27.464,18.726c-27.464,21.639 -59.714,29.753 -96.75,24.344c-37.035,-5.41 -66.372,-22.679 -88.011,-51.808c-21.639,-27.464 -28.921,-59.714 -21.847,-96.75c7.074,-37.035 24.344,-66.372 51.808,-88.011l533.061,-391.993c26.632,-19.142 55.345,-33.29 86.139,-42.445c30.794,-9.155 62.003,-13.732 93.629,-13.732c31.626,0 62.835,4.577 93.629,13.732c30.794,9.155 59.506,23.303 86.139,42.445l533.061,394.49c27.464,21.639 44.526,49.935 51.184,84.89c6.658,34.955 -0.832,67.413 -22.471,97.374c-21.639,29.961 -50.56,47.855 -86.763,53.681c-36.203,5.826 -69.285,-2.497 -99.247,-24.968l-24.968,-17.477l0,278.39l116.1,0c9.155,0 17.894,-1.665 26.216,-4.994c8.323,-3.329 16.229,-8.739 23.719,-16.229l32.458,-29.961c25.8,-25.8 55.969,-38.492 90.508,-38.076c34.539,0.416 65.54,14.356 93.005,41.821c26.632,26.632 39.948,56.802 39.948,90.508c0,33.706 -13.316,63.876 -39.948,90.508l-29.961,32.458c-31.626,31.626 -67.829,55.553 -108.61,71.782c-40.781,16.229 -83.226,24.344 -127.335,24.344l-1293.327,0Zm777.744,-262.161l0,-126.087c0,-35.787 -12.9,-66.581 -38.7,-92.381c-25.8,-25.8 -56.593,-38.7 -92.381,-38.7c-35.787,0 -66.581,12.9 -92.381,38.7c-25.8,25.8 -38.7,56.593 -38.7,92.381l0,126.087l262.161,0Z" style="fill-rule:nonzero;"/></g></g></svg>