<svg width="100%" height="100%" viewBox="0 0 2134 534" version="1.1" xmlns="http://www.w3.org/2000/svg" xmlns:xlink="http://www.w3.org/1999/xlink" xml:space="preserve" xmlns:serif="http://www.serif.com/" style="fill-rule:evenodd;clip-rule:evenodd;stroke-linejoin:round;stroke-miterlimit:2;">
	<rect id="Artboard12" x="0" y="0" width="2133.33" height="533.333" style="fill:none;" />
	<path d="M55.729,103.505c-30.777,-17.654 -55.729,-3.192 -55.729,32.277l-0,261.744c-0,35.504 24.952,49.948 55.729,32.31l228.777,-131.202c30.788,-17.66 30.788,-46.273 0,-63.929l-228.777,-131.2Z" style="fill-rule:nonzero;" />
	<g>
		<g>
			<g>
				<path d="M461.022,351.165l-0,100.276l-101.079,0l-0,-152.325c-0,-5.086 4.129,-9.215 9.214,-9.215l3.817,0l0,-91.445c0,-5.086 4.129,-9.215 9.215,-9.215l4.892,0l-0,-97.988c-0,-5.167 4.194,-9.361 9.36,-9.361l28.082,0c5.167,0 9.361,4.194 9.361,9.361l0,97.988l4.892,0c5.086,0 9.215,4.129 9.215,9.215l-0,91.445l3.816,0c5.086,0 9.215,4.129 9.215,9.215l-0,12.285l37.545,-0l-0,-12.285c-0,-5.086 4.129,-9.215 9.214,-9.215l3.817,0l-0,-91.445c-0,-5.086 4.129,-9.215 9.214,-9.215l4.892,0l0,-97.988c0,-5.167 4.195,-9.361 9.361,-9.361l28.082,0c5.166,0 9.361,4.194 9.361,9.361l-0,97.988l4.892,0c5.085,0 9.214,4.129 9.214,9.215l0,91.445l3.817,0c5.086,0 9.215,4.129 9.215,9.215l-0,152.325l-101.079,0l-0,-100.276l-37.545,-0Z" />
			</g>
		</g>
		<path d="M692.506,374.144l-0,-202.506l113.692,0c9.643,0 18.371,2.17 26.181,6.51c7.811,4.339 14.079,10.366 18.805,18.081c4.725,7.714 7.087,16.875 7.087,27.482c0,6.751 -1.35,13.163 -4.05,19.239c-2.7,6.075 -6.364,11.33 -10.993,15.766c-4.629,4.436 -10.029,7.907 -16.2,10.415c7.135,2.314 13.452,6.027 18.948,11.137c5.497,5.111 9.836,11.09 13.019,17.937c3.182,6.846 4.773,14.223 4.773,22.131c-0,10.8 -2.459,20.25 -7.377,28.351c-4.918,8.1 -11.427,14.368 -19.527,18.804c-8.101,4.435 -17.165,6.653 -27.194,6.653l-117.164,0Zm41.369,-36.451l63.934,0c4.629,0 8.775,-1.109 12.439,-3.327c3.665,-2.217 6.606,-5.207 8.824,-8.968c2.218,-3.76 3.327,-7.859 3.327,-12.295c-0,-4.628 -1.109,-8.775 -3.327,-12.439c-2.218,-3.665 -5.159,-6.606 -8.824,-8.824c-3.664,-2.218 -7.81,-3.327 -12.439,-3.327l-63.934,0l-0,49.18Zm-0,-83.895l60.173,0c4.243,0 8.1,-1.012 11.572,-3.038c3.471,-2.025 6.22,-4.773 8.245,-8.244c2.025,-3.472 3.037,-7.329 3.037,-11.572c0,-4.243 -1.012,-8.1 -3.037,-11.572c-2.025,-3.471 -4.774,-6.22 -8.245,-8.245c-3.472,-2.025 -7.329,-3.037 -11.572,-3.037l-60.173,-0l-0,45.708Z" style="fill-rule:nonzero;" />
		<path d="M940.72,377.616c-13.5,-0 -25.265,-3.472 -35.294,-10.415c-10.029,-6.943 -17.791,-16.248 -23.288,-27.917c-5.497,-11.668 -8.245,-24.541 -8.245,-38.62c0,-14.465 3.134,-27.58 9.402,-39.344c6.268,-11.765 15.285,-21.071 27.049,-27.917c11.765,-6.847 25.844,-10.27 42.237,-10.27c16.586,-0 30.569,3.471 41.948,10.414c11.379,6.944 20.058,16.297 26.036,28.062c5.979,11.765 8.968,24.783 8.968,39.055l0,73.48l-39.633,0l0,-24.59l-0.578,0c-2.893,5.208 -6.51,9.933 -10.849,14.176c-4.339,4.243 -9.595,7.618 -15.767,10.125c-6.171,2.507 -13.5,3.761 -21.986,3.761Zm11.283,-33.847c7.714,-0 14.368,-1.929 19.961,-5.786c5.593,-3.858 9.884,-9.113 12.873,-15.767c2.99,-6.654 4.485,-14.031 4.485,-22.131c-0,-8.1 -1.495,-15.381 -4.485,-21.842c-2.989,-6.461 -7.28,-11.62 -12.873,-15.477c-5.593,-3.857 -12.247,-5.786 -19.961,-5.786c-7.908,0 -14.706,1.929 -20.396,5.786c-5.689,3.857 -10.028,9.016 -13.018,15.477c-2.989,6.461 -4.484,13.742 -4.484,21.842c0,8.1 1.495,15.477 4.484,22.131c2.99,6.654 7.329,11.909 13.018,15.767c5.69,3.857 12.488,5.786 20.396,5.786Z" style="fill-rule:nonzero;" />
		<path d="M1055.57,374.144l-0,-84.763c-0,-12.15 2.845,-23.24 8.534,-33.269c5.69,-10.028 13.934,-18.032 24.735,-24.011c10.8,-5.979 23.722,-8.968 38.765,-8.968c15.236,-0 28.206,2.989 38.91,8.968c10.704,5.979 18.901,13.983 24.59,24.011c5.69,10.029 8.534,21.119 8.534,33.269l0,84.763l-39.633,0l0,-84.763c0,-5.979 -1.446,-11.427 -4.339,-16.345c-2.893,-4.918 -6.799,-8.823 -11.717,-11.716c-4.918,-2.893 -10.366,-4.34 -16.345,-4.34c-5.979,0 -11.427,1.447 -16.345,4.34c-4.918,2.893 -8.823,6.798 -11.716,11.716c-2.893,4.918 -4.34,10.366 -4.34,16.345l0,84.763l-39.633,0Z" style="fill-rule:nonzero;" />
		<path d="M1294.82,377.616c-12.343,-0 -23.384,-1.977 -33.124,-5.931c-9.74,-3.953 -17.888,-9.546 -24.445,-16.779c-6.558,-7.232 -11.572,-15.718 -15.044,-25.458c-3.471,-9.739 -5.207,-20.395 -5.207,-31.967c0,-14.657 2.941,-27.531 8.824,-38.62c5.882,-11.09 14.175,-19.817 24.879,-26.181c10.704,-6.365 23.192,-9.547 37.463,-9.547c6.172,-0 12.103,0.868 17.792,2.604c5.689,1.735 10.849,4.242 15.477,7.521c4.629,3.279 8.39,7.136 11.283,11.572l0.289,-0l0,-81.87l39.633,-0l0,134.521c0,16.201 -3.182,30.328 -9.546,42.382c-6.365,12.054 -15.333,21.36 -26.905,27.917c-11.572,6.557 -25.361,9.836 -41.369,9.836Zm0,-33.847c7.908,-0 14.658,-1.929 20.251,-5.786c5.593,-3.858 9.884,-9.065 12.873,-15.622c2.99,-6.558 4.484,-13.886 4.484,-21.987c0,-8.1 -1.494,-15.429 -4.484,-21.986c-2.989,-6.557 -7.28,-11.765 -12.873,-15.622c-5.593,-3.857 -12.343,-5.786 -20.251,-5.786c-7.714,0 -14.416,1.929 -20.106,5.786c-5.689,3.857 -10.029,9.065 -13.018,15.622c-2.989,6.557 -4.484,13.886 -4.484,21.986c-0,8.101 1.495,15.429 4.484,21.987c2.989,6.557 7.329,11.764 13.018,15.622c5.69,3.857 12.392,5.786 20.106,5.786Z" style="fill-rule:nonzero;" />
		<path d="M1455.37,377.616c-13.5,-0 -25.265,-3.472 -35.293,-10.415c-10.029,-6.943 -17.792,-16.248 -23.289,-27.917c-5.496,-11.668 -8.245,-24.541 -8.245,-38.62c0,-14.465 3.135,-27.58 9.403,-39.344c6.268,-11.765 15.284,-21.071 27.049,-27.917c11.764,-6.847 25.843,-10.27 42.236,-10.27c16.587,-0 30.569,3.471 41.948,10.414c11.379,6.944 20.058,16.297 26.037,28.062c5.978,11.765 8.968,24.783 8.968,39.055l-0,73.48l-39.634,0l0,-24.59l-0.578,0c-2.893,5.208 -6.509,9.933 -10.849,14.176c-4.339,4.243 -9.595,7.618 -15.766,10.125c-6.172,2.507 -13.501,3.761 -21.987,3.761Zm11.283,-33.847c7.714,-0 14.368,-1.929 19.961,-5.786c5.593,-3.858 9.884,-9.113 12.874,-15.767c2.989,-6.654 4.484,-14.031 4.484,-22.131c-0,-8.1 -1.495,-15.381 -4.484,-21.842c-2.99,-6.461 -7.281,-11.62 -12.874,-15.477c-5.593,-3.857 -12.247,-5.786 -19.961,-5.786c-7.907,0 -14.706,1.929 -20.395,5.786c-5.69,3.857 -10.029,9.016 -13.019,15.477c-2.989,6.461 -4.484,13.742 -4.484,21.842c0,8.1 1.495,15.477 4.484,22.131c2.99,6.654 7.329,11.909 13.019,15.767c5.689,3.857 12.488,5.786 20.395,5.786Z" style="fill-rule:nonzero;" />
		<path d="M1568.78,374.144l-0,-105.592c-0,-13.115 3.712,-23.385 11.138,-30.81c7.425,-7.425 17.695,-11.138 30.809,-11.138l40.791,0l-0,33.848l-33.848,-0c-2.507,-0 -4.676,0.868 -6.509,2.603c-1.832,1.736 -2.748,3.954 -2.748,6.654l0,104.435l-39.633,0Z" style="fill-rule:nonzero;" />
		<path d="M1698.67,374.144c-8.1,0 -15.477,-2.025 -22.131,-6.075c-6.654,-4.05 -12.006,-9.402 -16.056,-16.056c-4.05,-6.653 -6.075,-14.03 -6.075,-22.131c-0,-9.45 2.025,-17.454 6.075,-24.011c4.05,-6.557 9.402,-11.572 16.056,-15.043c6.654,-3.472 14.031,-5.208 22.131,-5.208l53.809,0l-0,-14.754c-0,-3.085 -1.109,-5.593 -3.327,-7.521c-2.218,-1.929 -4.774,-2.893 -7.667,-2.893l-72.902,-0l0,-33.848l76.663,0c8.679,0 16.49,2.074 23.433,6.22c6.943,4.147 12.488,9.643 16.634,16.49c4.147,6.847 6.22,14.416 6.22,22.71l0,55.833c0,8.486 -2.121,16.249 -6.364,23.289c-4.243,7.039 -9.933,12.632 -17.069,16.779c-7.136,4.146 -15.139,6.219 -24.011,6.219l-45.419,0Zm8.968,-33.847l32.69,-0c3.472,-0 6.365,-1.061 8.679,-3.182c2.314,-2.122 3.472,-4.822 3.472,-8.1l-0,-17.069l-44.841,0c-3.857,0 -7.184,1.398 -9.981,4.195c-2.796,2.796 -4.194,6.123 -4.194,9.981c-0,2.507 0.626,4.869 1.88,7.087c1.254,2.218 2.989,3.954 5.207,5.208c2.218,1.253 4.581,1.88 7.088,1.88Z" style="fill-rule:nonzero;" />
		<path d="M1868.78,432.871l-0,-57.28c-11.186,-2.314 -20.685,-6.557 -28.496,-12.729c-7.811,-6.172 -13.789,-13.742 -17.936,-22.71c-4.146,-8.968 -6.22,-18.563 -6.22,-28.784l0,-84.764l39.634,0l-0,84.764c-0,5.978 1.446,11.427 4.339,16.345c2.893,4.918 6.798,8.823 11.716,11.716c4.918,2.893 10.367,4.34 16.345,4.34c5.979,-0 11.428,-1.447 16.346,-4.34c4.918,-2.893 8.823,-6.798 11.716,-11.716c2.893,-4.918 4.339,-10.367 4.339,-16.345l0,-84.764l39.634,0l-0,84.764c-0,10.221 -2.025,19.72 -6.075,28.495c-4.051,8.775 -9.933,16.297 -17.647,22.565c-7.715,6.268 -17.069,10.559 -28.062,12.874l0,57.569l-39.633,0Z" style="fill-rule:nonzero;" />
		<path d="M2044.38,377.616c-13.5,-0 -25.265,-3.472 -35.294,-10.415c-10.028,-6.943 -17.791,-16.248 -23.288,-27.917c-5.496,-11.668 -8.245,-24.541 -8.245,-38.62c0,-14.465 3.134,-27.58 9.402,-39.344c6.268,-11.765 15.285,-21.071 27.049,-27.917c11.765,-6.847 25.844,-10.27 42.237,-10.27c16.587,-0 30.569,3.471 41.948,10.414c11.379,6.944 20.058,16.297 26.037,28.062c5.978,11.765 8.968,24.783 8.968,39.055l-0,73.48l-39.634,0l0,-24.59l-0.578,0c-2.893,5.208 -6.509,9.933 -10.849,14.176c-4.339,4.243 -9.595,7.618 -15.766,10.125c-6.172,2.507 -13.501,3.761 -21.987,3.761Zm11.283,-33.847c7.714,-0 14.368,-1.929 19.961,-5.786c5.593,-3.858 9.884,-9.113 12.874,-15.767c2.989,-6.654 4.484,-14.031 4.484,-22.131c-0,-8.1 -1.495,-15.381 -4.484,-21.842c-2.99,-6.461 -7.281,-11.62 -12.874,-15.477c-5.593,-3.857 -12.247,-5.786 -19.961,-5.786c-7.908,0 -14.706,1.929 -20.395,5.786c-5.69,3.857 -10.029,9.016 -13.019,15.477c-2.989,6.461 -4.484,13.742 -4.484,21.842c0,8.1 1.495,15.477 4.484,22.131c2.99,6.654 7.329,11.909 13.019,15.767c5.689,3.857 12.487,5.786 20.395,5.786Z" style="fill-rule:nonzero;" />
	</g>
</svg>
