<svg width="100%" height="100%" viewBox="0 0 2134 534" version="1.1" xmlns="http://www.w3.org/2000/svg" xmlns:xlink="http://www.w3.org/1999/xlink" xml:space="preserve" xmlns:serif="http://www.serif.com/" style="fill-rule:evenodd;clip-rule:evenodd;stroke-linejoin:round;stroke-miterlimit:2;">
	<rect id="Artboard12" x="0" y="0" width="2133.33" height="533.333" style="fill:none;" />
	<path d="M55.729,103.505c-30.777,-17.654 -55.729,-3.192 -55.729,32.277l-0,261.744c-0,35.504 24.952,49.948 55.729,32.31l228.777,-131.202c30.788,-17.66 30.788,-46.273 0,-63.929l-228.777,-131.2Z" style="fill-rule:nonzero;" />
	<g>
		<path d="M586.083,398.589l23.974,-37.518l-156.125,0c0,0 -13.411,-0.388 -22.292,-9.202c-8.88,-8.814 -6.705,-20.051 -6.705,-20.051l15.973,-183.189c0,-0 1.264,-10.755 -0.35,-12.357c-1.614,-1.603 -5.521,-1.555 -5.521,-1.555l-39.111,0l-21.372,245.113c0,-0 -1.48,9.12 2.879,14.27c4.359,5.149 13,4.489 13,4.489l195.65,-0Z" style="fill-rule:nonzero;" />
		<path d="M1025.62,398.589l22.959,-37.518l-174.452,0l-22.423,37.518l173.916,-0Z" style="fill-rule:nonzero;" />
		<path d="M800.973,398.589l22.959,-37.518l-163.684,0l-22.422,37.518l163.147,-0Z" style="fill-rule:nonzero;" />
		<path d="M1248.32,398.589l22.959,-37.518l-172.516,0l-22.422,37.518l171.979,-0Z" style="fill-rule:nonzero;" />
		<path d="M1803.96,398.589l-71.654,-0c0,-0 -17.036,-2.704 -27.948,-12.263c-10.912,-9.558 -14.881,-25.255 -14.881,-25.255l-11.788,-40.204l-114.656,0l-19.158,40.204c0,0 -6.07,14.229 -17.429,22.979c-19.953,15.371 -31.272,14.539 -31.272,14.539l-196.126,-0l22.422,-37.518l155.225,0c0,0 11.316,-0.316 15.602,-2.823c4.287,-2.507 10.116,-12.219 10.116,-12.219l93.093,-192.579l79.416,0l58.831,192.875c-0,-0 4.331,8.92 7.886,11.377c3.555,2.458 13.445,3.369 13.445,3.369l71.298,0l-22.422,37.518Zm72.613,-37.518l192.915,0l-30.388,37.518l-185.485,-0l22.958,-37.518Zm-235.086,-165.849c0,-0 -2.249,-9.452 -9.282,-9.5c-7.034,-0.047 -10.859,9.585 -10.859,9.585l-38.338,80.712l82.555,0l-24.076,-80.797Z" />
		<path d="M1671.61,398.589l30.388,-37.518l-30.388,37.518Z" style="fill-rule:nonzero;" />
		<path d="M2099.95,398.589l-16.77,-37.518l-56.704,0l-29.851,37.518l103.325,-0Z" style="fill-rule:nonzero;" />
		<path d="M486.072,153.45l-12.957,148.604c-0,-0 -0.459,9.738 3.421,13.781c3.881,4.042 14.639,5.032 14.639,5.032l137.081,0l3.139,-35.995l-110.842,0l2.768,-31.745l98.328,-0l2.939,-33.712l-98.328,-0l2.613,-29.97l110.843,0l3.138,-35.995l-156.782,0Z" style="fill-rule:nonzero;" />
		<path d="M774.88,320.867c50.553,0 65.872,-14.701 68.548,-45.393l0.554,-6.348c1.859,-21.324 -8.487,-31.462 -28.872,-34.757l0.11,-1.268c17.409,-3.548 27.393,-12.672 29.053,-31.717l0.554,-6.349c2.654,-30.432 -13.984,-41.585 -55.605,-41.585l-114.411,0l-14.598,167.417l114.667,0Zm-57.025,-134.212l56.464,-0c20.694,-0 24.639,4.571 23.709,15.237l-0.155,1.778c-1.151,13.206 -8.249,15.491 -27.922,15.491l-54.93,0l2.834,-32.506Zm-5.619,64.442l54.42,0c21.205,0 32.415,3.301 31.197,17.267l-0.155,1.778c-1.174,13.458 -8.682,17.521 -31.676,17.521l-56.974,0l3.188,-36.566Z" style="fill-rule:nonzero;" />
		<path d="M969.285,323.151c69.723,-0 96.369,-24.589 100.571,-72.783l8.45,-96.918l-45.939,0l-8.229,94.381c-2.434,27.908 -17.67,38.564 -52.926,38.564l-4.087,-0c-35.256,-0 -48.889,-10.656 -46.455,-38.564l8.229,-94.381l-45.939,0l-8.451,96.918c-4.622,53.01 24.535,72.783 87.623,72.783l7.153,-0Z" style="fill-rule:nonzero;" />
		<path d="M1247.9,218.146l-94.274,0l5.641,-64.696l-45.939,0l-14.598,167.417l45.94,0l5.862,-67.233l94.273,0l-5.862,67.233l46.195,0l14.598,-167.417l-46.195,0l-5.641,64.696Z" style="fill-rule:nonzero;" />
		<path d="M1367.38,320.867l4.469,-51.248c13.708,1.014 30.292,1.268 46.388,1.268l26.046,49.98l48.757,0l-29.4,-55.05c27.739,-7.858 42.791,-25.347 45.225,-53.268l0.266,-3.047c4.091,-46.926 -25.484,-56.052 -80.143,-56.052l-92.95,0l-14.598,167.417l45.94,0Zm43.366,-84.2c-10.986,0 -22.461,-0.254 -35.914,-1.269l4.029,-46.206l46.244,-0c31.17,-0 39.181,4.823 37.742,21.326l-0.332,3.808c-1.572,18.025 -14.212,22.341 -49.47,22.341l-2.299,0Z" style="fill-rule:nonzero;" />
		<path d="M1834.5,320.867l4.821,-55.298l91.248,-112.119l-50.058,0l-56.849,69.249l-6.38,0l-44.772,-69.249l-50.569,0l71.463,111.865l-4.844,55.552l45.94,0Z" style="fill-rule:nonzero;" />
		<path d="M2050.83,288.646l-8.807,-33.712l-26.004,-86.583l-9.421,21.348l-30.968,65.235l-11.19,25.686l40.24,-0l10.709,40.247l-69.767,0l-48.774,0l81.247,-167.417l79.416,0l75.468,245.139l-49.912,-0l-32.237,-109.943Z" />
	</g>
</svg>
